<?xml version="1.0" encoding="UTF-8" standalone="no"?>
<svg
   width="240"
   height="60"
   viewBox="0 0 63.499998 15.875001"
   version="1.1"
   id="svg4518"
   sodipodi:docname="retina.svg"
   inkscape:version="1.2.2 (b0a8486541, 2022-12-01)"
   xmlns:inkscape="http://www.inkscape.org/namespaces/inkscape"
   xmlns:sodipodi="http://sodipodi.sourceforge.net/DTD/sodipodi-0.dtd"
   xmlns="http://www.w3.org/2000/svg"
   xmlns:svg="http://www.w3.org/2000/svg">
  <defs
     id="defs21" />
  <sodipodi:namedview
     id="namedview19"
     pagecolor="#ffffff"
     bordercolor="#000000"
     borderopacity="0.25"
     inkscape:showpageshadow="2"
     inkscape:pageopacity="0.0"
     inkscape:pagecheckerboard="0"
     inkscape:deskcolor="#d1d1d1"
     showgrid="false"
     inkscape:zoom="3.1214693"
     inkscape:cx="56.704065"
     inkscape:cy="0"
     inkscape:window-width="1920"
     inkscape:window-height="1029"
     inkscape:window-x="0"
     inkscape:window-y="27"
     inkscape:window-maximized="1"
     inkscape:current-layer="svg4518" />
  <g
     id="layer1"
     transform="translate(0,-281.12498)"
     style="opacity:0.2">
    <g
       id="g4490"
       transform="translate(-7.0846624,274.79808)">
      <g
         aria-label="retinadata"
         id="text4489"
         style="fill:#303030;fill-opacity:1;stroke:none;stroke-width:0.19717671px;stroke-linecap:butt;stroke-linejoin:miter;stroke-opacity:1">
        <path
           d="m 27.726743,11.999727 q 0.27447,0 0.501618,0.06625 l -0.208219,1.173596 q -0.227147,-0.05679 -0.444831,-0.05679 -0.44483,0 -0.700371,0.321793 -0.255541,0.312328 -0.406973,0.965377 v 2.668984 H 25.256513 V 12.13223 h 1.050558 l 0.113574,0.984306 q 0.179825,-0.539476 0.520546,-0.82341 0.340721,-0.293399 0.785552,-0.293399 z"
           id="path1139" />
        <path
           d="m 32.809155,14.517279 q 0,0.09464 -0.02839,0.492153 h -3.142209 q 0.05679,0.728765 0.37858,1.041093 0.321792,0.312328 0.851803,0.312328 0.331257,0 0.624656,-0.104109 0.293399,-0.113574 0.624656,-0.340721 l 0.501617,0.690907 q -0.832874,0.671978 -1.855038,0.671978 -1.145203,0 -1.769858,-0.700372 -0.615192,-0.700371 -0.615192,-1.911825 0,-0.766623 0.265006,-1.37235 0.265005,-0.615191 0.766623,-0.955913 0.501617,-0.350186 1.192525,-0.350186 1.050557,0 1.627891,0.671979 0.577333,0.662513 0.577333,1.855038 z m -1.201989,-0.350186 q 0,-1.315563 -0.974842,-1.315563 -0.444831,0 -0.700372,0.331257 -0.246076,0.321793 -0.293399,1.041093 h 1.968613 z"
           id="path1141" />
        <path
           d="m 36.765306,16.902329 q -0.265005,0.189289 -0.596262,0.283934 -0.321792,0.09464 -0.662514,0.09464 -0.738229,-0.0095 -1.126273,-0.416437 -0.378579,-0.416437 -0.378579,-1.220918 V 13.002962 H 33.216126 V 12.13223 h 0.785552 v -1.107345 l 1.211453,-0.141967 v 1.249312 h 1.164132 l -0.123039,0.870732 h -1.041093 v 2.612197 q 0,0.369115 0.123039,0.530011 0.132502,0.160896 0.406972,0.160896 0.27447,0 0.596263,-0.179825 z"
           id="path1143" />
        <path
           d="m 38.658203,12.13223 v 5.006711 H 37.446749 V 12.13223 Z M 38.043012,9.5957484 q 0.340721,0 0.54894,0.2176831 0.217683,0.2082185 0.217683,0.5205465 0,0.312328 -0.217683,0.520547 -0.208219,0.208218 -0.54894,0.208218 -0.331257,0 -0.54894,-0.208218 -0.208219,-0.208219 -0.208219,-0.520547 0,-0.312328 0.208219,-0.5205465 0.217683,-0.2176831 0.54894,-0.2176831 z"
           id="path1145" />
        <path
           d="m 42.784714,11.990262 q 0.671978,0 1.041093,0.406973 0.378579,0.397508 0.378579,1.116809 v 3.624897 h -1.211453 v -3.435607 q 0,-0.444831 -0.160897,-0.624656 -0.151431,-0.179825 -0.454295,-0.179825 -0.312328,0 -0.567869,0.198754 -0.246076,0.18929 -0.482688,0.558404 v 3.48293 H 40.11573 V 12.13223 h 1.050557 l 0.09464,0.653049 q 0.615192,-0.795017 1.523782,-0.795017 z"
           id="path1147" />
        <path
           d="m 49.3152,15.813913 q 0,0.293399 0.08518,0.435366 0.09464,0.132503 0.293399,0.208219 l -0.255541,0.804481 q -0.425901,-0.03786 -0.700371,-0.208219 -0.265006,-0.17036 -0.406973,-0.520546 -0.255541,0.378579 -0.643585,0.567869 -0.378579,0.179825 -0.851803,0.179825 -0.747694,0 -1.183061,-0.425902 -0.435366,-0.425901 -0.435366,-1.116809 0,-0.813945 0.586798,-1.239847 0.596262,-0.435366 1.694142,-0.435366 h 0.624656 V 13.77905 q 0,-0.482689 -0.227147,-0.671979 -0.217683,-0.198754 -0.709837,-0.198754 -0.548939,0 -1.325027,0.265006 l -0.283934,-0.82341 q 0.936983,-0.359651 1.81718,-0.359651 1.92129,0 1.92129,1.722536 z m -2.157902,0.586798 q 0.615191,0 0.965377,-0.615191 v -1.0127 h -0.501617 q -1.173596,0 -1.173596,0.870733 0,0.35965 0.179825,0.558404 0.179825,0.198754 0.530011,0.198754 z"
           id="path1149" />
        <path
           d="m 54.993885,10.125759 v 7.013182 h -1.069487 l -0.08518,-0.634121 q -0.236612,0.359651 -0.605727,0.567869 -0.35965,0.208219 -0.82341,0.208219 -0.918055,0 -1.410208,-0.709836 -0.492153,-0.709836 -0.492153,-1.930755 0,-0.766623 0.246077,-1.362885 0.246076,-0.605727 0.700371,-0.946448 0.46376,-0.340722 1.069487,-0.340722 0.7193,0 1.258776,0.539476 V 9.9932567 Z m -2.243083,6.237094 q 0.321793,0 0.567869,-0.151431 0.246077,-0.160897 0.46376,-0.492154 v -2.290404 q -0.217683,-0.265006 -0.444831,-0.397509 -0.217683,-0.132502 -0.511082,-0.132502 -0.482688,0 -0.766623,0.435366 -0.27447,0.425902 -0.27447,1.296634 0,0.927519 0.246077,1.334492 0.246076,0.397508 0.7193,0.397508 z"
           id="path1151" />
        <path
           d="m 60.152038,15.813913 q 0,0.293399 0.08518,0.435366 0.09464,0.132503 0.293399,0.208219 l -0.255541,0.804481 q -0.425902,-0.03786 -0.700372,-0.208219 -0.265005,-0.17036 -0.406972,-0.520546 -0.255541,0.378579 -0.643585,0.567869 -0.378579,0.179825 -0.851804,0.179825 -0.747694,0 -1.18306,-0.425902 -0.435366,-0.425901 -0.435366,-1.116809 0,-0.813945 0.586798,-1.239847 0.596262,-0.435366 1.694142,-0.435366 h 0.624656 V 13.77905 q 0,-0.482689 -0.227148,-0.671979 -0.217683,-0.198754 -0.709836,-0.198754 -0.54894,0 -1.325027,0.265006 l -0.283935,-0.82341 q 0.936984,-0.359651 1.817181,-0.359651 1.92129,0 1.92129,1.722536 z m -2.157902,0.586798 q 0.615191,0 0.965377,-0.615191 v -1.0127 h -0.501618 q -1.173595,0 -1.173595,0.870733 0,0.35965 0.179825,0.558404 0.179825,0.198754 0.530011,0.198754 z"
           id="path1153" />
        <path
           d="m 64.486766,16.902329 q -0.265006,0.189289 -0.596263,0.283934 -0.321792,0.09464 -0.662513,0.09464 -0.73823,-0.0095 -1.126274,-0.416437 -0.378579,-0.416437 -0.378579,-1.220918 V 13.002962 H 60.937585 V 12.13223 h 0.785552 v -1.107345 l 1.211454,-0.141967 v 1.249312 h 1.164131 l -0.123038,0.870732 h -1.041093 v 2.612197 q 0,0.369115 0.123038,0.530011 0.132503,0.160896 0.406973,0.160896 0.27447,0 0.596262,-0.179825 z"
           id="path1155" />
        <path
           d="m 68.774173,15.813913 q 0,0.293399 0.08518,0.435366 0.09464,0.132503 0.293399,0.208219 l -0.255541,0.804481 Q 68.47131,17.224121 68.19684,17.05376 67.931834,16.8834 67.789867,16.533214 q -0.255541,0.378579 -0.643585,0.567869 -0.378579,0.179825 -0.851803,0.179825 -0.747695,0 -1.183061,-0.425902 -0.435366,-0.425901 -0.435366,-1.116809 0,-0.813945 0.586798,-1.239847 0.596262,-0.435366 1.694142,-0.435366 h 0.624656 V 13.77905 q 0,-0.482689 -0.227147,-0.671979 -0.217683,-0.198754 -0.709837,-0.198754 -0.54894,0 -1.325027,0.265006 l -0.283935,-0.82341 q 0.936984,-0.359651 1.817181,-0.359651 1.92129,0 1.92129,1.722536 z m -2.157902,0.586798 q 0.615191,0 0.965377,-0.615191 v -1.0127 h -0.501617 q -1.173596,0 -1.173596,0.870733 0,0.35965 0.179825,0.558404 0.179825,0.198754 0.530011,0.198754 z"
           id="path1157" />
      </g>
      <g
         id="g4500"
         transform="matrix(0.74523486,0,0,0.74523486,3.6833705,3.6918403)">
        <circle
           style="opacity:1;fill:#cc0000;fill-opacity:1;stroke:#000000;stroke-width:1;stroke-miterlimit:4;stroke-dasharray:none;stroke-opacity:1"
           id="path4485"
           cx="17.339653"
           cy="14.491152"
           r="7.210753" />
        <circle
           r="3.8396549"
           cy="14.491152"
           cx="11.424317"
           id="circle4495"
           style="opacity:1;fill:#ffffff;fill-opacity:1;stroke:#000000;stroke-width:1;stroke-miterlimit:4;stroke-dasharray:none;stroke-opacity:1" />
      </g>
    </g>
  </g>
</svg>
