<?xml version="1.0" encoding="UTF-8"?>
<svg id="Calque_1" xmlns="http://www.w3.org/2000/svg" xmlns:xlink="http://www.w3.org/1999/xlink" xmlns:svg="http://www.w3.org/2000/svg" xmlns:sodipodi="http://sodipodi.sourceforge.net/DTD/sodipodi-0.dtd" xmlns:inkscape="http://www.inkscape.org/namespaces/inkscape" version="1.1" viewBox="0 0 800 600">
  <!-- Generator: Adobe Illustrator 29.8.1, SVG Export Plug-In . SVG Version: 2.1.1 Build 2)  -->
  <defs>
    <style>
      .st0 {
        fill: none;
      }

      .st1 {
        fill: #eaf0f6;
      }

      .st2 {
        fill: #0790ba;
      }

      .st3 {
        fill: #ffd58f;
      }

      .st4 {
        fill: #2c4c59;
      }

      .st5 {
        fill: url(#Unnamed_Pattern_2);
        opacity: .1;
      }

      .st5, .st6, .st7, .st8, .st9, .st10 {
        isolation: isolate;
      }

      .st6 {
        fill: url(#Unnamed_Pattern_3);
      }

      .st6, .st8 {
        opacity: .6;
      }

      .st11 {
        fill: url(#linear-gradient2);
      }

      .st12 {
        fill: url(#linear-gradient1);
      }

      .st13 {
        fill: url(#linear-gradient9);
      }

      .st14 {
        fill: url(#linear-gradient3);
      }

      .st15 {
        fill: url(#linear-gradient6);
      }

      .st16 {
        fill: url(#linear-gradient8);
      }

      .st17 {
        fill: url(#linear-gradient7);
      }

      .st18 {
        fill: url(#linear-gradient5);
      }

      .st19 {
        fill: url(#linear-gradient4);
      }

      .st20 {
        fill: #216aa2;
      }

      .st21 {
        fill: url(#linear-gradient13);
      }

      .st22 {
        fill: url(#linear-gradient12);
      }

      .st23 {
        fill: url(#linear-gradient15);
      }

      .st24 {
        fill: url(#linear-gradient16);
      }

      .st25 {
        fill: url(#linear-gradient11);
      }

      .st26 {
        fill: url(#linear-gradient10);
      }

      .st27 {
        fill: url(#linear-gradient17);
      }

      .st28 {
        fill: url(#linear-gradient14);
      }

      .st29 {
        fill: url(#linear-gradient);
      }

      .st30 {
        fill: #f9f7f5;
      }

      .st31 {
        fill: #8abfd2;
      }

      .st7, .st32 {
        fill: #d8dfe2;
      }

      .st7, .st10 {
        opacity: .5;
      }

      .st33, .st10 {
        fill: #fff;
      }

      .st8 {
        fill: url(#Unnamed_Pattern_31);
      }

      .st9 {
        fill: url(#Unnamed_Pattern_21);
        opacity: .3;
      }

      .st34 {
        fill: #292947;
      }

      .st35 {
        fill: #6eca98;
      }

      .st36 {
        fill: #abcad5;
      }

      .st37 {
        fill: #2d2d48;
      }

      .st38 {
        fill: #253746;
      }

      .st39 {
        fill: #524689;
      }

      .st40 {
        fill: #f18a00;
      }
    </style>
    <pattern id="Unnamed_Pattern_3" data-name="Unnamed Pattern 3" x="0" y="0" width="27.8" height="27.8" patternTransform="translate(-26798.2 -4309.9) rotate(89.8) scale(.4)" patternUnits="userSpaceOnUse" viewBox="0 0 27.8 27.8">
      <g>
        <rect class="st0" width="27.8" height="27.8"/>
        <g>
          <rect class="st0" width="27.8" height="27.8"/>
          <g>
            <rect class="st0" width="27.8" height="27.8"/>
            <path class="st37" d="M29.2,27.8c0,.7-.6,1.3-1.3,1.3s-1.3-.6-1.3-1.3.6-1.3,1.3-1.3,1.3.6,1.3,1.3Z"/>
            <g>
              <path class="st37" d="M1.3,27.8c0,.7-.6,1.3-1.3,1.3s-1.3-.6-1.3-1.3.6-1.3,1.3-1.3,1.3.6,1.3,1.3Z"/>
              <path class="st37" d="M8.3,27.8c0,.7-.6,1.3-1.3,1.3s-1.3-.6-1.3-1.3.6-1.3,1.3-1.3,1.3.6,1.3,1.3Z"/>
              <path class="st37" d="M8.3,27.8c0,.7-.6,1.3-1.3,1.3s-1.3-.6-1.3-1.3.6-1.3,1.3-1.3,1.3.6,1.3,1.3Z"/>
              <path class="st37" d="M15.2,27.8c0,.7-.6,1.3-1.3,1.3s-1.3-.6-1.3-1.3.6-1.3,1.3-1.3,1.3.6,1.3,1.3Z"/>
              <path class="st37" d="M15.2,27.8c0,.7-.6,1.3-1.3,1.3s-1.3-.6-1.3-1.3.6-1.3,1.3-1.3,1.3.6,1.3,1.3Z"/>
              <path class="st37" d="M22.2,27.8c0,.7-.6,1.3-1.3,1.3s-1.3-.6-1.3-1.3.6-1.3,1.3-1.3,1.3.6,1.3,1.3Z"/>
              <path class="st37" d="M22.2,27.8c0,.7-.6,1.3-1.3,1.3s-1.3-.6-1.3-1.3.6-1.3,1.3-1.3,1.3.6,1.3,1.3Z"/>
              <path class="st37" d="M29.2,27.8c0,.7-.6,1.3-1.3,1.3s-1.3-.6-1.3-1.3.6-1.3,1.3-1.3,1.3.6,1.3,1.3Z"/>
            </g>
            <path class="st37" d="M1.3,27.8c0,.7-.6,1.3-1.3,1.3s-1.3-.6-1.3-1.3.6-1.3,1.3-1.3,1.3.6,1.3,1.3Z"/>
            <g>
              <path class="st37" d="M29.2,0c0,.7-.6,1.3-1.3,1.3s-1.4-.6-1.4-1.3.6-1.3,1.3-1.3,1.4.6,1.4,1.3Z"/>
              <circle class="st37" cx="27.8" cy="8.8" r="1.3"/>
              <circle class="st37" cx="27.8" cy="19.2" r="1.3"/>
            </g>
            <g>
              <path class="st37" d="M1.3,0c0,.7-.6,1.3-1.3,1.3S-1.3.7-1.3,0-.7-1.3,0-1.3,1.3-.7,1.3,0Z"/>
              <path class="st37" d="M8.3,0c0,.7-.6,1.3-1.3,1.3s-1.4-.6-1.4-1.3.6-1.3,1.3-1.3,1.4.6,1.4,1.3Z"/>
              <path class="st37" d="M8.3,0c0,.7-.6,1.3-1.3,1.3s-1.4-.6-1.4-1.3.6-1.3,1.3-1.3,1.4.6,1.4,1.3Z"/>
              <path class="st37" d="M15.2,0c0,.7-.6,1.3-1.3,1.3s-1.3-.6-1.3-1.3.6-1.3,1.3-1.3,1.3.6,1.3,1.3Z"/>
              <path class="st37" d="M15.2,0c0,.7-.6,1.3-1.3,1.3s-1.3-.6-1.3-1.3.6-1.3,1.3-1.3,1.3.6,1.3,1.3Z"/>
              <path class="st37" d="M22.2,0c0,.7-.6,1.3-1.3,1.3s-1.4-.6-1.4-1.3.6-1.3,1.3-1.3,1.4.6,1.4,1.3Z"/>
              <path class="st37" d="M22.2,0c0,.7-.6,1.3-1.3,1.3s-1.4-.6-1.4-1.3.6-1.3,1.3-1.3,1.4.6,1.4,1.3Z"/>
              <path class="st37" d="M29.2,0c0,.7-.6,1.3-1.3,1.3s-1.4-.6-1.4-1.3.6-1.3,1.3-1.3,1.4.6,1.4,1.3Z"/>
              <circle class="st37" cy="8.8" r="1.3"/>
              <circle class="st37" cx="7" cy="8.8" r="1.3"/>
              <circle class="st37" cx="7" cy="8.8" r="1.3"/>
              <circle class="st37" cx="13.9" cy="8.8" r="1.3"/>
              <circle class="st37" cx="13.9" cy="8.8" r="1.3"/>
              <circle class="st37" cx="20.9" cy="8.8" r="1.3"/>
              <circle class="st37" cx="20.9" cy="8.8" r="1.3"/>
              <path class="st37" d="M29.2,8.8c0,.7-.6,1.3-1.3,1.3s-1.3-.6-1.3-1.3.6-1.3,1.3-1.3,1.3.6,1.3,1.3Z"/>
              <circle class="st37" cy="19.2" r="1.3"/>
              <circle class="st37" cx="7" cy="19.2" r="1.3"/>
              <circle class="st37" cx="7" cy="19.2" r="1.3"/>
              <circle class="st37" cx="13.9" cy="19.2" r="1.3"/>
              <circle class="st37" cx="13.9" cy="19.2" r="1.3"/>
              <circle class="st37" cx="20.9" cy="19.2" r="1.3"/>
              <circle class="st37" cx="20.9" cy="19.2" r="1.3"/>
              <path class="st37" d="M29.2,19.2c0,.7-.6,1.3-1.3,1.3s-1.3-.6-1.3-1.3.6-1.3,1.3-1.3,1.3.6,1.3,1.3Z"/>
            </g>
            <g>
              <path class="st37" d="M1.3,0c0,.7-.6,1.3-1.3,1.3S-1.3.7-1.3,0-.7-1.3,0-1.3,1.3-.7,1.3,0Z"/>
              <path class="st37" d="M1.3,8.8c0,.7-.6,1.3-1.3,1.3s-1.3-.6-1.3-1.3.6-1.3,1.3-1.3,1.3.6,1.3,1.3Z"/>
              <path class="st37" d="M1.3,19.2c0,.7-.6,1.3-1.3,1.3s-1.3-.6-1.3-1.3.6-1.3,1.3-1.3,1.3.6,1.3,1.3Z"/>
            </g>
          </g>
        </g>
      </g>
    </pattern>
    <linearGradient id="linear-gradient" x1="-27.2" y1="35.5" x2="701.2" y2="275.7" gradientTransform="translate(0 32)" gradientUnits="userSpaceOnUse">
      <stop offset="0" stop-color="#514687" stop-opacity=".8"/>
      <stop offset=".2" stop-color="#514687"/>
      <stop offset=".3" stop-color="#de3c31"/>
      <stop offset=".5" stop-color="#eb8900"/>
      <stop offset=".6" stop-color="#fdcb02"/>
      <stop offset=".7" stop-color="#6fca96"/>
      <stop offset=".9" stop-color="#0790ba"/>
    </linearGradient>
    <pattern id="Unnamed_Pattern_31" data-name="Unnamed Pattern 31" x="0" y="0" width="27.8" height="27.8" patternTransform="translate(-19632.8 -4315.1) rotate(90.2) scale(.4 -.4)" patternUnits="userSpaceOnUse" viewBox="0 0 27.8 27.8">
      <g>
        <rect class="st0" width="27.8" height="27.8"/>
        <g>
          <rect class="st0" width="27.8" height="27.8"/>
          <g>
            <rect class="st0" width="27.8" height="27.8"/>
            <path class="st37" d="M29.2,27.8c0,.7-.6,1.3-1.3,1.3s-1.3-.6-1.3-1.3.6-1.3,1.3-1.3,1.3.6,1.3,1.3Z"/>
            <g>
              <path class="st37" d="M1.3,27.8c0,.7-.6,1.3-1.3,1.3s-1.3-.6-1.3-1.3.6-1.3,1.3-1.3,1.3.6,1.3,1.3Z"/>
              <path class="st37" d="M8.3,27.8c0,.7-.6,1.3-1.3,1.3s-1.3-.6-1.3-1.3.6-1.3,1.3-1.3,1.3.6,1.3,1.3Z"/>
              <path class="st37" d="M8.3,27.8c0,.7-.6,1.3-1.3,1.3s-1.3-.6-1.3-1.3.6-1.3,1.3-1.3,1.3.6,1.3,1.3Z"/>
              <path class="st37" d="M15.2,27.8c0,.7-.6,1.3-1.3,1.3s-1.3-.6-1.3-1.3.6-1.3,1.3-1.3,1.3.6,1.3,1.3Z"/>
              <path class="st37" d="M15.2,27.8c0,.7-.6,1.3-1.3,1.3s-1.3-.6-1.3-1.3.6-1.3,1.3-1.3,1.3.6,1.3,1.3Z"/>
              <path class="st37" d="M22.2,27.8c0,.7-.6,1.3-1.3,1.3s-1.3-.6-1.3-1.3.6-1.3,1.3-1.3,1.3.6,1.3,1.3Z"/>
              <path class="st37" d="M22.2,27.8c0,.7-.6,1.3-1.3,1.3s-1.3-.6-1.3-1.3.6-1.3,1.3-1.3,1.3.6,1.3,1.3Z"/>
              <path class="st37" d="M29.2,27.8c0,.7-.6,1.3-1.3,1.3s-1.3-.6-1.3-1.3.6-1.3,1.3-1.3,1.3.6,1.3,1.3Z"/>
            </g>
            <path class="st37" d="M1.3,27.8c0,.7-.6,1.3-1.3,1.3s-1.3-.6-1.3-1.3.6-1.3,1.3-1.3,1.3.6,1.3,1.3Z"/>
            <g>
              <path class="st37" d="M29.2,0c0,.7-.6,1.3-1.3,1.3s-1.4-.6-1.4-1.3.6-1.3,1.3-1.3,1.4.6,1.4,1.3Z"/>
              <circle class="st37" cx="27.8" cy="8.8" r="1.3"/>
              <circle class="st37" cx="27.8" cy="19.2" r="1.3"/>
            </g>
            <g>
              <path class="st37" d="M1.3,0c0,.7-.6,1.3-1.3,1.3S-1.3.7-1.3,0-.7-1.3,0-1.3,1.3-.7,1.3,0Z"/>
              <path class="st37" d="M8.3,0c0,.7-.6,1.3-1.3,1.3s-1.4-.6-1.4-1.3.6-1.3,1.3-1.3,1.4.6,1.4,1.3Z"/>
              <path class="st37" d="M8.3,0c0,.7-.6,1.3-1.3,1.3s-1.4-.6-1.4-1.3.6-1.3,1.3-1.3,1.4.6,1.4,1.3Z"/>
              <path class="st37" d="M15.2,0c0,.7-.6,1.3-1.3,1.3s-1.3-.6-1.3-1.3.6-1.3,1.3-1.3,1.3.6,1.3,1.3Z"/>
              <path class="st37" d="M15.2,0c0,.7-.6,1.3-1.3,1.3s-1.3-.6-1.3-1.3.6-1.3,1.3-1.3,1.3.6,1.3,1.3Z"/>
              <path class="st37" d="M22.2,0c0,.7-.6,1.3-1.3,1.3s-1.4-.6-1.4-1.3.6-1.3,1.3-1.3,1.4.6,1.4,1.3Z"/>
              <path class="st37" d="M22.2,0c0,.7-.6,1.3-1.3,1.3s-1.4-.6-1.4-1.3.6-1.3,1.3-1.3,1.4.6,1.4,1.3Z"/>
              <path class="st37" d="M29.2,0c0,.7-.6,1.3-1.3,1.3s-1.4-.6-1.4-1.3.6-1.3,1.3-1.3,1.4.6,1.4,1.3Z"/>
              <circle class="st37" cy="8.8" r="1.3"/>
              <circle class="st37" cx="7" cy="8.8" r="1.3"/>
              <circle class="st37" cx="7" cy="8.8" r="1.3"/>
              <circle class="st37" cx="13.9" cy="8.8" r="1.3"/>
              <circle class="st37" cx="13.9" cy="8.8" r="1.3"/>
              <circle class="st37" cx="20.9" cy="8.8" r="1.3"/>
              <circle class="st37" cx="20.9" cy="8.8" r="1.3"/>
              <path class="st37" d="M29.2,8.8c0,.7-.6,1.3-1.3,1.3s-1.3-.6-1.3-1.3.6-1.3,1.3-1.3,1.3.6,1.3,1.3Z"/>
              <circle class="st37" cy="19.2" r="1.3"/>
              <circle class="st37" cx="7" cy="19.2" r="1.3"/>
              <circle class="st37" cx="7" cy="19.2" r="1.3"/>
              <circle class="st37" cx="13.9" cy="19.2" r="1.3"/>
              <circle class="st37" cx="13.9" cy="19.2" r="1.3"/>
              <circle class="st37" cx="20.9" cy="19.2" r="1.3"/>
              <circle class="st37" cx="20.9" cy="19.2" r="1.3"/>
              <path class="st37" d="M29.2,19.2c0,.7-.6,1.3-1.3,1.3s-1.3-.6-1.3-1.3.6-1.3,1.3-1.3,1.3.6,1.3,1.3Z"/>
            </g>
            <g>
              <path class="st37" d="M1.3,0c0,.7-.6,1.3-1.3,1.3S-1.3.7-1.3,0-.7-1.3,0-1.3,1.3-.7,1.3,0Z"/>
              <path class="st37" d="M1.3,8.8c0,.7-.6,1.3-1.3,1.3s-1.3-.6-1.3-1.3.6-1.3,1.3-1.3,1.3.6,1.3,1.3Z"/>
              <path class="st37" d="M1.3,19.2c0,.7-.6,1.3-1.3,1.3s-1.3-.6-1.3-1.3.6-1.3,1.3-1.3,1.3.6,1.3,1.3Z"/>
            </g>
          </g>
        </g>
      </g>
    </pattern>
    <linearGradient id="linear-gradient1" x1="10.4" y1="-78.6" x2="738.8" y2="161.5" gradientTransform="translate(0 32)" gradientUnits="userSpaceOnUse">
      <stop offset="0" stop-color="#514687" stop-opacity=".8"/>
      <stop offset=".2" stop-color="#514687"/>
      <stop offset=".3" stop-color="#de3c31"/>
      <stop offset=".5" stop-color="#eb8900"/>
      <stop offset=".6" stop-color="#fdcb02"/>
      <stop offset=".7" stop-color="#6fca96"/>
      <stop offset=".9" stop-color="#0790ba"/>
    </linearGradient>
    <linearGradient id="linear-gradient2" x1="6.3" y1="-66.2" x2="734.8" y2="173.9" gradientTransform="translate(0 32)" gradientUnits="userSpaceOnUse">
      <stop offset="0" stop-color="#514687" stop-opacity=".8"/>
      <stop offset=".2" stop-color="#514687"/>
      <stop offset=".3" stop-color="#de3c31"/>
      <stop offset=".5" stop-color="#eb8900"/>
      <stop offset=".6" stop-color="#fdcb02"/>
      <stop offset=".7" stop-color="#6fca96"/>
      <stop offset=".9" stop-color="#0790ba"/>
    </linearGradient>
    <linearGradient id="linear-gradient3" x1="-20.1" y1="14" x2="708.3" y2="254.1" gradientTransform="translate(0 32)" gradientUnits="userSpaceOnUse">
      <stop offset="0" stop-color="#514687" stop-opacity=".8"/>
      <stop offset=".2" stop-color="#514687"/>
      <stop offset=".3" stop-color="#de3c31"/>
      <stop offset=".5" stop-color="#eb8900"/>
      <stop offset=".6" stop-color="#fdcb02"/>
      <stop offset=".7" stop-color="#6fca96"/>
      <stop offset=".9" stop-color="#0790ba"/>
    </linearGradient>
    <linearGradient id="linear-gradient4" x1="-23.3" y1="23.7" x2="705.1" y2="263.9" gradientTransform="translate(0 32)" gradientUnits="userSpaceOnUse">
      <stop offset="0" stop-color="#514687" stop-opacity=".8"/>
      <stop offset=".2" stop-color="#514687"/>
      <stop offset=".3" stop-color="#de3c31"/>
      <stop offset=".5" stop-color="#eb8900"/>
      <stop offset=".6" stop-color="#fdcb02"/>
      <stop offset=".7" stop-color="#6fca96"/>
      <stop offset=".9" stop-color="#0790ba"/>
    </linearGradient>
    <linearGradient id="linear-gradient5" x1="26.2" y1="-126.6" x2="754.7" y2="113.6" gradientTransform="translate(0 32)" gradientUnits="userSpaceOnUse">
      <stop offset="0" stop-color="#514687" stop-opacity=".8"/>
      <stop offset=".2" stop-color="#514687"/>
      <stop offset=".3" stop-color="#de3c31"/>
      <stop offset=".5" stop-color="#eb8900"/>
      <stop offset=".6" stop-color="#fdcb02"/>
      <stop offset=".7" stop-color="#6fca96"/>
      <stop offset=".9" stop-color="#0790ba"/>
    </linearGradient>
    <linearGradient id="linear-gradient6" x1="23.9" y1="-119.6" x2="752.3" y2="120.6" gradientTransform="translate(0 32)" gradientUnits="userSpaceOnUse">
      <stop offset="0" stop-color="#514687" stop-opacity=".8"/>
      <stop offset=".2" stop-color="#514687"/>
      <stop offset=".3" stop-color="#de3c31"/>
      <stop offset=".5" stop-color="#eb8900"/>
      <stop offset=".6" stop-color="#fdcb02"/>
      <stop offset=".7" stop-color="#6fca96"/>
      <stop offset=".9" stop-color="#0790ba"/>
    </linearGradient>
    <linearGradient id="linear-gradient7" x1="-15.4" y1="-.3" x2="713" y2="239.9" gradientTransform="translate(0 32)" gradientUnits="userSpaceOnUse">
      <stop offset="0" stop-color="#514687" stop-opacity=".8"/>
      <stop offset=".2" stop-color="#514687"/>
      <stop offset=".3" stop-color="#de3c31"/>
      <stop offset=".5" stop-color="#eb8900"/>
      <stop offset=".6" stop-color="#fdcb02"/>
      <stop offset=".7" stop-color="#6fca96"/>
      <stop offset=".9" stop-color="#0790ba"/>
    </linearGradient>
    <linearGradient id="linear-gradient8" x1="-9" y1="-19.8" x2="719.5" y2="220.3" gradientTransform="translate(0 32)" gradientUnits="userSpaceOnUse">
      <stop offset="0" stop-color="#514687" stop-opacity=".8"/>
      <stop offset=".2" stop-color="#514687"/>
      <stop offset=".3" stop-color="#de3c31"/>
      <stop offset=".5" stop-color="#eb8900"/>
      <stop offset=".6" stop-color="#fdcb02"/>
      <stop offset=".7" stop-color="#6fca96"/>
      <stop offset=".9" stop-color="#0790ba"/>
    </linearGradient>
    <linearGradient id="linear-gradient9" x1="18" y1="-101.6" x2="746.4" y2="138.6" gradientTransform="translate(0 32)" gradientUnits="userSpaceOnUse">
      <stop offset="0" stop-color="#514687" stop-opacity=".8"/>
      <stop offset=".2" stop-color="#514687"/>
      <stop offset=".3" stop-color="#de3c31"/>
      <stop offset=".5" stop-color="#eb8900"/>
      <stop offset=".6" stop-color="#fdcb02"/>
      <stop offset=".7" stop-color="#6fca96"/>
      <stop offset=".9" stop-color="#0790ba"/>
    </linearGradient>
    <linearGradient id="linear-gradient10" x1="22.4" y1="-115.1" x2="750.8" y2="125.1" gradientTransform="translate(0 32)" gradientUnits="userSpaceOnUse">
      <stop offset="0" stop-color="#514687" stop-opacity=".8"/>
      <stop offset=".2" stop-color="#514687"/>
      <stop offset=".3" stop-color="#de3c31"/>
      <stop offset=".5" stop-color="#eb8900"/>
      <stop offset=".6" stop-color="#fdcb02"/>
      <stop offset=".7" stop-color="#6fca96"/>
      <stop offset=".9" stop-color="#0790ba"/>
    </linearGradient>
    <linearGradient id="linear-gradient11" x1="-14.2" y1="-4.1" x2="714.3" y2="236.1" gradientTransform="translate(278.5 -290.6) rotate(45)" gradientUnits="userSpaceOnUse">
      <stop offset="0" stop-color="#514687" stop-opacity=".8"/>
      <stop offset=".2" stop-color="#514687"/>
      <stop offset=".3" stop-color="#de3c31"/>
      <stop offset=".5" stop-color="#eb8900"/>
      <stop offset=".6" stop-color="#fdcb02"/>
      <stop offset=".7" stop-color="#6fca96"/>
      <stop offset=".9" stop-color="#0790ba"/>
    </linearGradient>
    <linearGradient id="linear-gradient12" x1="-14.2" y1="-4.1" x2="714.3" y2="236.1" gradientTransform="translate(0 32)" gradientUnits="userSpaceOnUse">
      <stop offset="0" stop-color="#514687" stop-opacity=".8"/>
      <stop offset=".2" stop-color="#514687"/>
      <stop offset=".3" stop-color="#de3c31"/>
      <stop offset=".5" stop-color="#eb8900"/>
      <stop offset=".6" stop-color="#fdcb02"/>
      <stop offset=".7" stop-color="#6fca96"/>
      <stop offset=".9" stop-color="#0790ba"/>
    </linearGradient>
    <pattern id="Unnamed_Pattern_2" data-name="Unnamed Pattern 2" x="0" y="0" width="27.8" height="27.8" patternTransform="translate(-18965.2 -2352.4) rotate(13.9) scale(.2)" patternUnits="userSpaceOnUse" viewBox="0 0 27.8 27.8">
      <g>
        <rect class="st0" width="27.8" height="27.8"/>
        <g>
          <rect class="st0" width="27.8" height="27.8"/>
          <g>
            <rect class="st0" width="27.8" height="27.8"/>
            <path class="st34" d="M29.2,27.8c0,.7-.6,1.3-1.3,1.3s-1.3-.6-1.3-1.3.6-1.3,1.3-1.3,1.3.6,1.3,1.3Z"/>
            <g>
              <path class="st34" d="M1.3,27.8c0,.7-.6,1.3-1.3,1.3s-1.3-.6-1.3-1.3.6-1.3,1.3-1.3,1.3.6,1.3,1.3Z"/>
              <path class="st34" d="M8.3,27.8c0,.7-.6,1.3-1.3,1.3s-1.3-.6-1.3-1.3.6-1.3,1.3-1.3,1.3.6,1.3,1.3Z"/>
              <path class="st34" d="M8.3,27.8c0,.7-.6,1.3-1.3,1.3s-1.3-.6-1.3-1.3.6-1.3,1.3-1.3,1.3.6,1.3,1.3Z"/>
              <path class="st34" d="M15.2,27.8c0,.7-.6,1.3-1.3,1.3s-1.3-.6-1.3-1.3.6-1.3,1.3-1.3,1.3.6,1.3,1.3Z"/>
              <path class="st34" d="M15.2,27.8c0,.7-.6,1.3-1.3,1.3s-1.3-.6-1.3-1.3.6-1.3,1.3-1.3,1.3.6,1.3,1.3Z"/>
              <path class="st34" d="M22.2,27.8c0,.7-.6,1.3-1.3,1.3s-1.3-.6-1.3-1.3.6-1.3,1.3-1.3,1.3.6,1.3,1.3Z"/>
              <path class="st34" d="M22.2,27.8c0,.7-.6,1.3-1.3,1.3s-1.3-.6-1.3-1.3.6-1.3,1.3-1.3,1.3.6,1.3,1.3Z"/>
              <path class="st34" d="M29.2,27.8c0,.7-.6,1.3-1.3,1.3s-1.3-.6-1.3-1.3.6-1.3,1.3-1.3,1.3.6,1.3,1.3Z"/>
            </g>
            <path class="st34" d="M1.3,27.8c0,.7-.6,1.3-1.3,1.3s-1.3-.6-1.3-1.3.6-1.3,1.3-1.3,1.3.6,1.3,1.3Z"/>
            <g>
              <path class="st34" d="M29.2,0c0,.7-.6,1.3-1.3,1.3s-1.4-.6-1.4-1.3.6-1.3,1.3-1.3,1.4.6,1.4,1.3Z"/>
              <circle class="st34" cx="27.8" cy="8.8" r="1.3"/>
              <circle class="st34" cx="27.8" cy="19.2" r="1.3"/>
            </g>
            <g>
              <path class="st34" d="M1.3,0c0,.7-.6,1.3-1.3,1.3S-1.3.7-1.3,0-.7-1.3,0-1.3,1.3-.7,1.3,0Z"/>
              <path class="st34" d="M8.3,0c0,.7-.6,1.3-1.3,1.3s-1.4-.6-1.4-1.3.6-1.3,1.3-1.3,1.4.6,1.4,1.3Z"/>
              <path class="st34" d="M8.3,0c0,.7-.6,1.3-1.3,1.3s-1.4-.6-1.4-1.3.6-1.3,1.3-1.3,1.4.6,1.4,1.3Z"/>
              <path class="st34" d="M15.2,0c0,.7-.6,1.3-1.3,1.3s-1.3-.6-1.3-1.3.6-1.3,1.3-1.3,1.3.6,1.3,1.3Z"/>
              <path class="st34" d="M15.2,0c0,.7-.6,1.3-1.3,1.3s-1.3-.6-1.3-1.3.6-1.3,1.3-1.3,1.3.6,1.3,1.3Z"/>
              <path class="st34" d="M22.2,0c0,.7-.6,1.3-1.3,1.3s-1.4-.6-1.4-1.3.6-1.3,1.3-1.3,1.4.6,1.4,1.3Z"/>
              <path class="st34" d="M22.2,0c0,.7-.6,1.3-1.3,1.3s-1.4-.6-1.4-1.3.6-1.3,1.3-1.3,1.4.6,1.4,1.3Z"/>
              <path class="st34" d="M29.2,0c0,.7-.6,1.3-1.3,1.3s-1.4-.6-1.4-1.3.6-1.3,1.3-1.3,1.4.6,1.4,1.3Z"/>
              <circle class="st34" cy="8.8" r="1.3"/>
              <circle class="st34" cx="7" cy="8.8" r="1.3"/>
              <circle class="st34" cx="7" cy="8.8" r="1.3"/>
              <circle class="st34" cx="13.9" cy="8.8" r="1.3"/>
              <circle class="st34" cx="13.9" cy="8.8" r="1.3"/>
              <circle class="st34" cx="20.9" cy="8.8" r="1.3"/>
              <circle class="st34" cx="20.9" cy="8.8" r="1.3"/>
              <path class="st34" d="M29.2,8.8c0,.7-.6,1.3-1.3,1.3s-1.3-.6-1.3-1.3.6-1.3,1.3-1.3,1.3.6,1.3,1.3Z"/>
              <circle class="st34" cy="19.2" r="1.3"/>
              <circle class="st34" cx="7" cy="19.2" r="1.3"/>
              <circle class="st34" cx="7" cy="19.2" r="1.3"/>
              <circle class="st34" cx="13.9" cy="19.2" r="1.3"/>
              <circle class="st34" cx="13.9" cy="19.2" r="1.3"/>
              <circle class="st34" cx="20.9" cy="19.2" r="1.3"/>
              <circle class="st34" cx="20.9" cy="19.2" r="1.3"/>
              <path class="st34" d="M29.2,19.2c0,.7-.6,1.3-1.3,1.3s-1.3-.6-1.3-1.3.6-1.3,1.3-1.3,1.3.6,1.3,1.3Z"/>
            </g>
            <g>
              <path class="st34" d="M1.3,0c0,.7-.6,1.3-1.3,1.3S-1.3.7-1.3,0-.7-1.3,0-1.3,1.3-.7,1.3,0Z"/>
              <path class="st34" d="M1.3,8.8c0,.7-.6,1.3-1.3,1.3s-1.3-.6-1.3-1.3.6-1.3,1.3-1.3,1.3.6,1.3,1.3Z"/>
              <path class="st34" d="M1.3,19.2c0,.7-.6,1.3-1.3,1.3s-1.3-.6-1.3-1.3.6-1.3,1.3-1.3,1.3.6,1.3,1.3Z"/>
            </g>
          </g>
        </g>
      </g>
    </pattern>
    <linearGradient id="linear-gradient13" x1="250.3" y1="304" x2="364.2" y2="352.3" gradientTransform="translate(0 32)" gradientUnits="userSpaceOnUse">
      <stop offset="0" stop-color="#514687" stop-opacity=".8"/>
      <stop offset=".2" stop-color="#514687"/>
      <stop offset=".3" stop-color="#de3c31"/>
      <stop offset=".4" stop-color="#de3e2f"/>
      <stop offset=".4" stop-color="#df452a"/>
      <stop offset=".4" stop-color="#e15222"/>
      <stop offset=".5" stop-color="#e56516"/>
      <stop offset=".5" stop-color="#e97d07"/>
      <stop offset=".5" stop-color="#eb8900"/>
      <stop offset=".6" stop-color="#fdcb02"/>
      <stop offset=".7" stop-color="#6fca96"/>
      <stop offset=".9" stop-color="#0790ba"/>
    </linearGradient>
    <linearGradient id="linear-gradient14" x1="197.9" y1="274.2" x2="532.5" y2="373.3" gradientTransform="translate(0 32)" gradientUnits="userSpaceOnUse">
      <stop offset="0" stop-color="#514687" stop-opacity=".8"/>
      <stop offset=".2" stop-color="#514687"/>
      <stop offset=".3" stop-color="#de3c31"/>
      <stop offset=".5" stop-color="#eb8900"/>
      <stop offset=".6" stop-color="#fdcb02"/>
      <stop offset=".7" stop-color="#6fca96"/>
      <stop offset=".9" stop-color="#0790ba"/>
    </linearGradient>
    <linearGradient id="linear-gradient15" x1="284.7" y1="323.7" x2="510.5" y2="373.9" gradientTransform="translate(0 32)" gradientUnits="userSpaceOnUse">
      <stop offset="0" stop-color="#514687" stop-opacity=".8"/>
      <stop offset=".2" stop-color="#514687"/>
      <stop offset=".3" stop-color="#de3c31"/>
      <stop offset=".5" stop-color="#eb8900"/>
      <stop offset=".6" stop-color="#fdcb02"/>
      <stop offset=".7" stop-color="#6fca96"/>
      <stop offset=".9" stop-color="#0790ba"/>
    </linearGradient>
    <linearGradient id="linear-gradient16" x1="261.5" y1="250.8" x2="596.2" y2="349.9" gradientTransform="translate(0 32)" gradientUnits="userSpaceOnUse">
      <stop offset="0" stop-color="#514687" stop-opacity=".8"/>
      <stop offset=".2" stop-color="#514687"/>
      <stop offset=".3" stop-color="#de3c31"/>
      <stop offset=".5" stop-color="#eb8900"/>
      <stop offset=".6" stop-color="#fdcb02"/>
      <stop offset=".7" stop-color="#6fca96"/>
      <stop offset=".9" stop-color="#0790ba"/>
    </linearGradient>
    <pattern id="Unnamed_Pattern_21" data-name="Unnamed Pattern 21" x="0" y="0" width="27.8" height="27.8" patternTransform="translate(-19135.1 -2337.2) rotate(13.9) scale(.2)" patternUnits="userSpaceOnUse" viewBox="0 0 27.8 27.8">
      <g>
        <rect class="st0" width="27.8" height="27.8"/>
        <g>
          <rect class="st0" width="27.8" height="27.8"/>
          <g>
            <rect class="st0" width="27.8" height="27.8"/>
            <path class="st34" d="M29.2,27.8c0,.7-.6,1.3-1.3,1.3s-1.3-.6-1.3-1.3.6-1.3,1.3-1.3,1.3.6,1.3,1.3Z"/>
            <g>
              <path class="st34" d="M1.3,27.8c0,.7-.6,1.3-1.3,1.3s-1.3-.6-1.3-1.3.6-1.3,1.3-1.3,1.3.6,1.3,1.3Z"/>
              <path class="st34" d="M8.3,27.8c0,.7-.6,1.3-1.3,1.3s-1.3-.6-1.3-1.3.6-1.3,1.3-1.3,1.3.6,1.3,1.3Z"/>
              <path class="st34" d="M8.3,27.8c0,.7-.6,1.3-1.3,1.3s-1.3-.6-1.3-1.3.6-1.3,1.3-1.3,1.3.6,1.3,1.3Z"/>
              <path class="st34" d="M15.2,27.8c0,.7-.6,1.3-1.3,1.3s-1.3-.6-1.3-1.3.6-1.3,1.3-1.3,1.3.6,1.3,1.3Z"/>
              <path class="st34" d="M15.2,27.8c0,.7-.6,1.3-1.3,1.3s-1.3-.6-1.3-1.3.6-1.3,1.3-1.3,1.3.6,1.3,1.3Z"/>
              <path class="st34" d="M22.2,27.8c0,.7-.6,1.3-1.3,1.3s-1.3-.6-1.3-1.3.6-1.3,1.3-1.3,1.3.6,1.3,1.3Z"/>
              <path class="st34" d="M22.2,27.8c0,.7-.6,1.3-1.3,1.3s-1.3-.6-1.3-1.3.6-1.3,1.3-1.3,1.3.6,1.3,1.3Z"/>
              <path class="st34" d="M29.2,27.8c0,.7-.6,1.3-1.3,1.3s-1.3-.6-1.3-1.3.6-1.3,1.3-1.3,1.3.6,1.3,1.3Z"/>
            </g>
            <path class="st34" d="M1.3,27.8c0,.7-.6,1.3-1.3,1.3s-1.3-.6-1.3-1.3.6-1.3,1.3-1.3,1.3.6,1.3,1.3Z"/>
            <g>
              <path class="st34" d="M29.2,0c0,.7-.6,1.3-1.3,1.3s-1.4-.6-1.4-1.3.6-1.3,1.3-1.3,1.4.6,1.4,1.3Z"/>
              <circle class="st34" cx="27.8" cy="8.8" r="1.3"/>
              <circle class="st34" cx="27.8" cy="19.2" r="1.3"/>
            </g>
            <g>
              <path class="st34" d="M1.3,0c0,.7-.6,1.3-1.3,1.3S-1.3.7-1.3,0-.7-1.3,0-1.3,1.3-.7,1.3,0Z"/>
              <path class="st34" d="M8.3,0c0,.7-.6,1.3-1.3,1.3s-1.4-.6-1.4-1.3.6-1.3,1.3-1.3,1.4.6,1.4,1.3Z"/>
              <path class="st34" d="M8.3,0c0,.7-.6,1.3-1.3,1.3s-1.4-.6-1.4-1.3.6-1.3,1.3-1.3,1.4.6,1.4,1.3Z"/>
              <path class="st34" d="M15.2,0c0,.7-.6,1.3-1.3,1.3s-1.3-.6-1.3-1.3.6-1.3,1.3-1.3,1.3.6,1.3,1.3Z"/>
              <path class="st34" d="M15.2,0c0,.7-.6,1.3-1.3,1.3s-1.3-.6-1.3-1.3.6-1.3,1.3-1.3,1.3.6,1.3,1.3Z"/>
              <path class="st34" d="M22.2,0c0,.7-.6,1.3-1.3,1.3s-1.4-.6-1.4-1.3.6-1.3,1.3-1.3,1.4.6,1.4,1.3Z"/>
              <path class="st34" d="M22.2,0c0,.7-.6,1.3-1.3,1.3s-1.4-.6-1.4-1.3.6-1.3,1.3-1.3,1.4.6,1.4,1.3Z"/>
              <path class="st34" d="M29.2,0c0,.7-.6,1.3-1.3,1.3s-1.4-.6-1.4-1.3.6-1.3,1.3-1.3,1.4.6,1.4,1.3Z"/>
              <circle class="st34" cy="8.8" r="1.3"/>
              <circle class="st34" cx="7" cy="8.8" r="1.3"/>
              <circle class="st34" cx="7" cy="8.8" r="1.3"/>
              <circle class="st34" cx="13.9" cy="8.8" r="1.3"/>
              <circle class="st34" cx="13.9" cy="8.8" r="1.3"/>
              <circle class="st34" cx="20.9" cy="8.8" r="1.3"/>
              <circle class="st34" cx="20.9" cy="8.8" r="1.3"/>
              <path class="st34" d="M29.2,8.8c0,.7-.6,1.3-1.3,1.3s-1.3-.6-1.3-1.3.6-1.3,1.3-1.3,1.3.6,1.3,1.3Z"/>
              <circle class="st34" cy="19.2" r="1.3"/>
              <circle class="st34" cx="7" cy="19.2" r="1.3"/>
              <circle class="st34" cx="7" cy="19.2" r="1.3"/>
              <circle class="st34" cx="13.9" cy="19.2" r="1.3"/>
              <circle class="st34" cx="13.9" cy="19.2" r="1.3"/>
              <circle class="st34" cx="20.9" cy="19.2" r="1.3"/>
              <circle class="st34" cx="20.9" cy="19.2" r="1.3"/>
              <path class="st34" d="M29.2,19.2c0,.7-.6,1.3-1.3,1.3s-1.3-.6-1.3-1.3.6-1.3,1.3-1.3,1.3.6,1.3,1.3Z"/>
            </g>
            <g>
              <path class="st34" d="M1.3,0c0,.7-.6,1.3-1.3,1.3S-1.3.7-1.3,0-.7-1.3,0-1.3,1.3-.7,1.3,0Z"/>
              <path class="st34" d="M1.3,8.8c0,.7-.6,1.3-1.3,1.3s-1.3-.6-1.3-1.3.6-1.3,1.3-1.3,1.3.6,1.3,1.3Z"/>
              <path class="st34" d="M1.3,19.2c0,.7-.6,1.3-1.3,1.3s-1.3-.6-1.3-1.3.6-1.3,1.3-1.3,1.3.6,1.3,1.3Z"/>
            </g>
          </g>
        </g>
      </g>
    </pattern>
    <linearGradient id="linear-gradient17" x1="204.3" y1="212" x2="538.9" y2="311.1" gradientTransform="translate(0 32)" gradientUnits="userSpaceOnUse">
      <stop offset="0" stop-color="#514687" stop-opacity=".8"/>
      <stop offset=".2" stop-color="#514687"/>
      <stop offset=".3" stop-color="#de3c31"/>
      <stop offset=".4" stop-color="#de3e2f"/>
      <stop offset=".4" stop-color="#df452a"/>
      <stop offset=".4" stop-color="#e15222"/>
      <stop offset=".5" stop-color="#e56516"/>
      <stop offset=".5" stop-color="#e97d07"/>
      <stop offset=".5" stop-color="#eb8900"/>
      <stop offset=".6" stop-color="#fdcb02"/>
      <stop offset=".7" stop-color="#6fca96"/>
      <stop offset=".9" stop-color="#0790ba"/>
    </linearGradient>
  </defs>
  <g>
    <path class="st38" d="M656.8,55.2h0c-.3,0-.5-.2-.7-.4l-2.4-4.5-4.5-2.5c-.2,0-.4-.4-.4-.7s.2-.5.4-.7l4.5-2.4,2.5-4.5c0-.2.4-.4.7-.4h0c.3,0,.5.2.7.4l2.4,4.5,4.5,2.5c.2,0,.4.4.4.7s-.2.5-.4.7l-4.5,2.4-2.5,4.5c0,.2-.4.4-.7.4ZM651.2,47.2l3.5,1.9s.2.2.3.3l1.9,3.5,1.9-3.5s.2-.2.3-.3l3.5-1.9-3.5-1.9s-.2-.2-.3-.3l-1.9-3.5-1.9,3.5s-.2.2-.3.3l-3.5,1.9Z"/>
    <path class="st38" d="M232.2,74.9h0c-.3,0-.5-.2-.7-.4l-2.4-4.5-4.5-2.5c-.2,0-.4-.4-.4-.7s.2-.5.4-.7l4.5-2.4,2.5-4.5c.1-.2.4-.4.7-.4s.5.2.7.4l2.4,4.5,4.5,2.5c.2,0,.4.4.4.7s-.2.5-.4.7l-4.5,2.4-2.5,4.5c-.1.2-.4.4-.7.4ZM226.6,66.9l3.5,1.9c.1,0,.2.2.3.3l1.9,3.5,1.9-3.5.3-.3,3.5-1.9-3.5-1.9c-.1,0-.2-.2-.3-.3l-1.9-3.5-1.9,3.5-.3.3-3.5,1.9Z"/>
    <path class="st38" d="M46.6,159.9c-.2,0-.5-.2-.7-.4l-2.4-4.5-4.5-2.5c-.2-.1-.4-.4-.4-.7s.2-.5.4-.7l4.5-2.4,2.5-4.5c0-.2.4-.3.7-.4.3,0,.5.2.7.4l2.4,4.5,4.5,2.5c.2.1.4.4.4.7s-.2.5-.4.7l-4.5,2.4-2.5,4.5c0,.2-.4.4-.7.4ZM40.9,151.9l3.5,1.9s.2.2.3.3l1.9,3.5,1.9-3.5c0-.1.2-.2.3-.3l3.5-1.9-3.5-1.9s-.2-.2-.3-.3l-1.9-3.5-1.9,3.5c0,.1-.2.2-.3.3l-3.5,1.9Z"/>
    <path class="st38" d="M749.9,141.9h0c-.3,0-.5-.2-.7-.4l-3.7-6.8-6.7-3.7c-.2-.1-.4-.4-.4-.7s.2-.5.4-.7l6.8-3.7,3.7-6.7c0-.2.4-.4.7-.4h0c.3,0,.5.2.7.4l3.7,6.8,6.7,3.7c.2.1.4.4.4.7s-.2.5-.4.7l-6.8,3.7-3.7,6.7c0,.2-.4.4-.7.4ZM740.8,130.4l5.7,3.2s.2.2.3.3l3.1,5.7,3.2-5.7c0-.1.2-.2.3-.3l5.7-3.1-5.7-3.2s-.2-.2-.3-.3l-3.1-5.7-3.2,5.7s-.2.2-.3.3l-5.7,3.1Z"/>
    <path class="st38" d="M483.6,84.2h0c-.3,0-.5-.2-.7-.4l-3.7-6.8-6.7-3.7c-.2,0-.4-.4-.4-.7s.2-.5.4-.7l6.8-3.7,3.7-6.7c.1-.2.4-.4.7-.4h0c.3,0,.5.2.7.4l3.7,6.8,6.7,3.7c.2,0,.4.4.4.7s-.2.5-.4.7l-6.8,3.7-3.7,6.7c-.1.2-.4.4-.7.4ZM474.5,72.7l5.7,3.2c.1,0,.2.2.3.3l3.1,5.7,3.2-5.7s.2-.2.3-.3l5.7-3.1-5.7-3.2c-.1,0-.2-.2-.3-.3l-3.1-5.7-3.2,5.7s-.2.2-.3.3l-5.7,3.1Z"/>
    <path class="st38" d="M66.6,53.7h0c-.3,0-.5-.2-.7-.4l-2.5-4.5-4.5-2.5c-.2,0-.4-.4-.4-.7s.2-.5.4-.7l4.5-2.5,2.5-4.5c0-.2.4-.4.7-.4h0c.3,0,.5.2.7.4l2.5,4.5,4.5,2.5c.2,0,.4.4.4.7s-.2.5-.4.7l-4.5,2.5-2.5,4.5c0,.2-.4.4-.7.4ZM60.9,45.7l3.5,1.9s.2.2.3.3l1.9,3.5,1.9-3.5s.2-.2.3-.3l3.5-1.9-3.5-1.9s-.2-.2-.3-.3l-1.9-3.5-1.9,3.5s-.2.2-.3.3l-3.5,1.9Z"/>
    <g>
      <g>
        <path class="st38" d="M707.6,185.5c-.4,0-.8-.3-.8-.8v-4.4c0-.4.3-.8.8-.8s.8.3.8.8v4.4c0,.4-.3.8-.8.8Z"/>
        <path class="st38" d="M707.6,196.9c-.4,0-.8-.3-.8-.8v-4.4c0-.4.3-.8.8-.8s.8.3.8.8v4.4c0,.4-.3.8-.8.8Z"/>
      </g>
      <g>
        <path class="st38" d="M715.6,189h-4.4c-.4,0-.8-.3-.8-.8s.3-.8.8-.8h4.4c.4,0,.8.3.8.8s-.3.8-.8.8Z"/>
        <path class="st38" d="M704.2,189h-4.4c-.4,0-.8-.3-.8-.8s.3-.8.8-.8h4.4c.4,0,.8.3.8.8s-.3.8-.8.8Z"/>
      </g>
      <g>
        <g>
          <line class="st0" x1="702" y1="193.8" x2="705.2" y2="190.7"/>
          <path class="st38" d="M702,194.6c-.2,0-.4,0-.5-.2-.3-.3-.3-.8,0-1.1l3.1-3.1c.3-.3.8-.3,1.1,0s.3.8,0,1.1l-3.1,3.1c0,.1-.3.2-.5.2h0Z"/>
        </g>
        <g>
          <line class="st0" x1="710.1" y1="185.8" x2="713.2" y2="182.6"/>
          <path class="st38" d="M710.1,186.5c-.2,0-.4,0-.5-.2-.3-.3-.3-.8,0-1.1l3.1-3.1c.3-.3.8-.3,1.1,0s.3.8,0,1.1l-3.1,3.1c0,.1-.3.2-.5.2h0Z"/>
        </g>
      </g>
      <g>
        <g>
          <line class="st0" x1="702" y1="182.6" x2="705.2" y2="185.8"/>
          <path class="st38" d="M705.2,186.5c-.2,0-.4,0-.5-.2l-3.1-3.1c-.3-.3-.3-.8,0-1.1s.8-.3,1.1,0l3.1,3.1c.3.3.3.8,0,1.1s-.3.2-.5.2h0Z"/>
        </g>
        <g>
          <line class="st0" x1="710.1" y1="190.7" x2="713.2" y2="193.8"/>
          <path class="st38" d="M713.2,194.6c-.2,0-.4,0-.5-.2l-3.1-3.1c-.3-.3-.3-.8,0-1.1s.8-.3,1.1,0l3.1,3.1c.3.3.3.8,0,1.1,0,.1-.3.2-.5.2h0Z"/>
        </g>
      </g>
    </g>
    <g>
      <g>
        <path class="st38" d="M65.8,213.4c-.4,0-.8-.3-.8-.8v-5.1c0-.4.3-.8.8-.8s.8.3.8.8v5.1c0,.4-.3.8-.8.8Z"/>
        <path class="st38" d="M65.8,226.3c-.4,0-.8-.3-.8-.8v-5.1c0-.4.3-.8.8-.8s.8.3.8.8v5.1c0,.4-.3.8-.8.8Z"/>
      </g>
      <g>
        <path class="st38" d="M61.9,217.3h-5.1c-.4,0-.8-.3-.8-.8s.3-.8.8-.8h5.1c.4,0,.8.3.8.8s-.3.8-.8.8Z"/>
        <path class="st38" d="M74.9,217.3h-5.1c-.4,0-.8-.3-.8-.8s.3-.8.8-.8h5.1c.4,0,.8.3.8.8s-.3.8-.8.8Z"/>
      </g>
      <g>
        <g>
          <line class="st0" x1="72.2" y1="223" x2="68.6" y2="219.4"/>
          <path class="st38" d="M72.2,223.7c-.2,0-.4,0-.5-.2l-3.6-3.6c-.3-.3-.3-.8,0-1.1s.8-.3,1.1,0l3.6,3.6c.3.3.3.8,0,1.1,0,.1-.3.2-.5.2h0Z"/>
        </g>
        <g>
          <line class="st0" x1="63" y1="213.8" x2="59.5" y2="210.2"/>
          <path class="st38" d="M63,214.5c-.2,0-.4,0-.5-.2l-3.6-3.6c-.3-.3-.3-.8,0-1.1s.8-.3,1.1,0l3.6,3.6c.3.3.3.8,0,1.1,0,.1-.3.2-.5.2h0Z"/>
        </g>
      </g>
      <g>
        <g>
          <line class="st0" x1="72.2" y1="210.2" x2="68.6" y2="213.8"/>
          <path class="st38" d="M68.6,214.5c-.2,0-.4,0-.5-.2-.3-.3-.3-.8,0-1.1l3.6-3.6c.3-.3.8-.3,1.1,0,.3.3.3.8,0,1.1l-3.6,3.6c0,.1-.3.2-.5.2h0Z"/>
        </g>
        <g>
          <line class="st0" x1="63" y1="219.4" x2="59.5" y2="223"/>
          <path class="st38" d="M59.5,223.7c-.2,0-.4,0-.5-.2-.3-.3-.3-.8,0-1.1l3.6-3.6c.3-.3.8-.3,1.1,0s.3.8,0,1.1l-3.6,3.6c0,.1-.3.2-.5.2h0Z"/>
        </g>
      </g>
    </g>
    <g>
      <g>
        <path class="st38" d="M345.2,102.3c-.4,0-.8-.3-.8-.8v-5.9c0-.4.3-.8.8-.8s.8.3.8.8v5.9c0,.4-.3.8-.8.8Z"/>
        <path class="st38" d="M345.2,117.4c-.4,0-.8-.3-.8-.8v-5.9c0-.4.3-.8.8-.8s.8.3.8.8v5.9c0,.4-.3.8-.8.8Z"/>
      </g>
      <g>
        <path class="st38" d="M340.6,106.9h-5.9c-.4,0-.8-.3-.8-.8s.3-.8.8-.8h5.9c.4,0,.8.3.8.8s-.3.8-.8.8Z"/>
        <path class="st38" d="M355.7,106.9h-5.9c-.4,0-.8-.3-.8-.8s.3-.8.8-.8h5.9c.4,0,.8.3.8.8s-.3.8-.8.8Z"/>
      </g>
      <g>
        <g>
          <line class="st0" x1="352.7" y1="113.6" x2="348.5" y2="109.4"/>
          <path class="st38" d="M352.7,114.3c-.2,0-.4,0-.5-.2l-4.2-4.2c-.3-.3-.3-.8,0-1.1s.8-.3,1.1,0l4.2,4.2c.3.3.3.8,0,1.1-.1,0-.3.2-.5.2h-.1Z"/>
        </g>
        <g>
          <line class="st0" x1="342" y1="102.9" x2="337.8" y2="98.7"/>
          <path class="st38" d="M342,103.7c-.2,0-.4,0-.5-.2l-4.2-4.2c-.3-.3-.3-.8,0-1.1.3-.3.8-.3,1.1,0l4.2,4.2c.3.3.3.8,0,1.1-.1,0-.3.2-.5.2h-.1Z"/>
        </g>
      </g>
      <g>
        <g>
          <line class="st0" x1="352.7" y1="98.7" x2="348.5" y2="102.9"/>
          <path class="st38" d="M348.5,103.7c-.2,0-.4,0-.5-.2-.3-.3-.3-.8,0-1.1l4.2-4.2c.3-.3.8-.3,1.1,0,.3.3.3.8,0,1.1l-4.2,4.2c-.1,0-.3.2-.5.2h-.1Z"/>
        </g>
        <g>
          <line class="st0" x1="342" y1="109.4" x2="337.8" y2="113.6"/>
          <path class="st38" d="M337.8,114.3c-.2,0-.4,0-.5-.2-.3-.3-.3-.8,0-1.1l4.2-4.2c.3-.3.8-.3,1.1,0,.3.3.3.8,0,1.1l-4.2,4.2c-.1,0-.3.2-.5.2h-.1Z"/>
        </g>
      </g>
    </g>
  </g>
  <path class="st38" d="M116.3,231.4c-.4,0-.8-.3-.8-.8v-104.4c0-.4.3-.8.8-.8h86.4c.4,0,.8.3.8.8s-.3.8-.8.8h-85.7v103.6c0,.4-.3.8-.8.8h0Z"/>
  <polyline class="st6" points="202.7 126.2 116.3 126.2 116.3 230.6"/>
  <rect class="st33" x="126.7" y="136" width="142.6" height="123.5"/>
  <rect class="st29" x="126.7" y="136" width="142.6" height="11.4"/>
  <path class="st38" d="M269.3,148.2H126.7c-.4,0-.8-.3-.8-.8v-11.4c0-.4.3-.8.8-.8h142.6c.4,0,.8.3.8.8v11.4c0,.4-.3.8-.8.8ZM127.4,146.7h141.1v-9.9H127.4v9.9Z"/>
  <path class="st38" d="M112.2,206.1h20.2c7.2,0,13-5.8,13-13h0c0-7.2-5.8-13-13-13h-20.2c-7.2,0-13,5.8-13,13h0c0,7.2,5.8,13,13,13Z"/>
  <path class="st38" d="M132.4,206.9h-20.2c-7.6,0-13.7-6.2-13.7-13.7s6.2-13.7,13.7-13.7h20.2c7.6,0,13.7,6.2,13.7,13.7s-6.2,13.7-13.7,13.7ZM112.2,180.9c-6.7,0-12.2,5.5-12.2,12.2s5.5,12.2,12.2,12.2h20.2c6.7,0,12.2-5.5,12.2-12.2s-5.5-12.2-12.2-12.2h-20.2Z"/>
  <path class="st33" d="M132,195.6c-1.3,0-2.4-1.1-2.4-2.4s1.1-2.4,2.4-2.4,2.4,1.1,2.4,2.4-1.1,2.4-2.4,2.4ZM132,192.2c-.5,0-.9.4-.9.9s.4.9.9.9.9-.4.9-.9-.4-.9-.9-.9Z"/>
  <path class="st33" d="M112.6,195.6c-1.3,0-2.4-1.1-2.4-2.4s1.1-2.4,2.4-2.4,2.4,1.1,2.4,2.4-1.1,2.4-2.4,2.4ZM112.6,192.2c-.5,0-.9.4-.9.9s.4.9.9.9.9-.4.9-.9-.4-.9-.9-.9Z"/>
  <path class="st33" d="M122,195.6c-1.3,0-2.4-1.1-2.4-2.4s1.1-2.4,2.4-2.4,2.4,1.1,2.4,2.4-1.1,2.4-2.4,2.4ZM122,192.2c-.5,0-.9.4-.9.9s.4.9.9.9.9-.4.9-.9-.4-.9-.9-.9Z"/>
  <path class="st38" d="M663.4,231.4c-.4,0-.8-.3-.8-.8v-103.6h-85.7c-.4,0-.8-.3-.8-.8s.3-.8.8-.8h86.4c.4,0,.8.3.8.8v104.4c0,.4-.3.8-.8.8h0Z"/>
  <polyline class="st8" points="577 126.2 663.4 126.2 663.4 230.6"/>
  <rect class="st33" x="510.5" y="136" width="142.6" height="123.5"/>
  <rect class="st12" x="510.5" y="136" width="142.6" height="11.4"/>
  <path class="st38" d="M653,148.2h-142.6c-.4,0-.8-.3-.8-.8v-11.4c0-.4.3-.8.8-.8h142.6c.4,0,.8.3.8.8v11.4c0,.4-.3.8-.8.8ZM511.2,146.7h141.1v-9.9h-141.1v9.9h0Z"/>
  <path class="st38" d="M667.5,206.1h-20.2c-7.2,0-13-5.8-13-13h0c0-7.2,5.8-13,13-13h20.2c7.2,0,13,5.8,13,13h0c0,7.2-5.8,13-13,13Z"/>
  <path class="st38" d="M667.5,206.9h-20.2c-7.6,0-13.7-6.2-13.7-13.7s6.2-13.7,13.7-13.7h20.2c7.6,0,13.7,6.2,13.7,13.7s-6.2,13.7-13.7,13.7ZM647.3,180.9c-6.7,0-12.2,5.5-12.2,12.2s5.5,12.2,12.2,12.2h20.2c6.8,0,12.2-5.5,12.2-12.2s-5.5-12.2-12.2-12.2h-20.2Z"/>
  <path class="st33" d="M647.7,195.6c-1.3,0-2.4-1.1-2.4-2.4s1.1-2.4,2.4-2.4,2.4,1.1,2.4,2.4-1.1,2.4-2.4,2.4ZM647.7,192.2c-.5,0-.9.4-.9.9s.4.9.9.9.9-.4.9-.9-.4-.9-.9-.9Z"/>
  <path class="st33" d="M667.1,195.6c-1.3,0-2.4-1.1-2.4-2.4s1.1-2.4,2.4-2.4,2.4,1.1,2.4,2.4-1.1,2.4-2.4,2.4ZM667.1,192.2c-.5,0-.9.4-.9.9s.4.9.9.9.9-.4.9-.9-.4-.9-.9-.9Z"/>
  <path class="st33" d="M657.7,195.6c-1.3,0-2.4-1.1-2.4-2.4s1.1-2.4,2.4-2.4,2.4,1.1,2.4,2.4-1.1,2.4-2.4,2.4ZM657.7,192.2c-.5,0-.9.4-.9.9s.4.9.9.9.9-.4.9-.9-.4-.9-.9-.9Z"/>
  <path class="st2" d="M131.9,114.5v-47.6c-26.3,0-47.6,21.3-47.6,47.6s21.3,47.6,47.6,47.6,47.6-21.3,47.6-47.6c0,0-47.6,0-47.6,0Z"/>
  <path class="st38" d="M131.9,162.9c-26.7,0-48.4-21.7-48.4-48.4s21.7-48.4,48.4-48.4.8.3.8.8v46.9h46.9c.4,0,.8.3.8.8,0,26.7-21.7,48.4-48.4,48.4h-.1ZM131.2,67.6c-25.5.4-46.1,21.3-46.1,46.9s21,46.9,46.9,46.9,46.5-20.6,46.9-46.1h-46.9c-.4,0-.8-.3-.8-.8,0,0,0-46.9,0-46.9Z"/>
  <path class="st39" d="M170.3,101.7c0-14.1-11.4-25.5-25.5-25.5v25.5h25.5Z"/>
  <path class="st38" d="M170.3,102.4h-25.5c-.4,0-.8-.3-.8-.8v-25.5c0-.4.3-.8.8-.8,14.5,0,26.3,11.8,26.3,26.3s-.3.8-.8.8ZM145.5,100.9h24c-.4-13.1-11-23.6-24-24v24Z"/>
  <path class="st2" d="M413.2,91.9h22.3c0-12.3-10-22.3-22.3-22.3s-22.3,10-22.3,22.3,10,22.3,22.3,22.3v-22.3Z"/>
  <path class="st38" d="M413.2,114.9c-12.7,0-23-10.3-23-23s10.3-23,23-23,23,10.3,23,23-.3.8-.8.8h-21.5v21.5c0,.4-.3.8-.8.8h0ZM413.2,70.3c-11.9,0-21.5,9.7-21.5,21.5s9.3,21.1,20.8,21.5v-21.5c0-.4.3-.8.8-.8h21.5c-.4-11.5-9.9-20.8-21.5-20.8h0Z"/>
  <path class="st11" d="M419.2,109.8c6.6,0,12-5.4,12-12h-12v12Z"/>
  <path class="st38" d="M419.2,110.6c-.4,0-.8-.3-.8-.8v-12c0-.4.3-.8.8-.8h12c.4,0,.8.3.8.8,0,7-5.7,12.7-12.7,12.7h0ZM419.9,98.6v10.4c5.6-.4,10.1-4.8,10.4-10.4h-10.4Z"/>
  <path class="st2" d="M288.8,169.1c0-12.9,9.3-23.6,21.6-25.8l-1-6c-17.6,3-29.4,19.6-26.4,37.2l6.2-1c-.2-1.4-.4-2.9-.4-4.3h0Z"/>
  <path class="st38" d="M283,175.2c-.4,0-.7-.3-.7-.6-3-17.9,9.1-35,27-38.1.2,0,.4,0,.6.1s.3.3.3.5l1,6c0,.4-.2.8-.6.9-12.2,2.2-21,12.7-21,25.1s.1,2.7.4,4.2c0,.4-.2.8-.6.9l-6.2,1h-.2,0ZM308.8,138.1c-16.5,3.2-27.6,18.8-25.2,35.4l4.7-.8c-.2-1.3-.3-2.5-.3-3.7,0-12.8,9-23.8,21.5-26.4l-.8-4.5h0Z"/>
  <path class="st14" d="M347,170.2c0-2.1,0-4.3-.4-6.5h0c.4,2.2.5,4.4.4,6.5Z"/>
  <path class="st38" d="M347,171h0c-.4,0-.7-.3-.7-.8h0v-1.1c0-1.8-.2-3.5-.4-5.3h0c0-.5.3-.8.6-.8s.8.2.9.6c.3,1.8.5,3.7.5,5.6s0,.7,0,1.1-.3.7-.8.7h-.1Z"/>
  <path class="st19" d="M346.6,163.7h0c-3-17.6-19.6-29.4-37.2-26.4l1,6c1.5-.3,3-.4,4.6-.4,14.5,0,26.2,11.7,26.2,26.2s-9.6,23.9-22.1,25.9l1,5.9c13.2-2.2,23.1-12.2,26-24.4.5-2,.8-4.1.8-6.3s0-4.3-.4-6.5h.1Z"/>
  <path class="st38" d="M320.2,201.6c-.2,0-.3,0-.4-.1-.2-.1-.3-.3-.3-.5l-1-5.9c0-.2,0-.4.1-.6.1-.2.3-.3.5-.3,12.4-2,21.4-12.5,21.4-25.1s-11.4-25.5-25.5-25.5-2.9.1-4.5.4c-.2,0-.4,0-.6-.1s-.3-.3-.3-.5l-1-6c0-.4.2-.8.6-.9,17.9-3,35,9.1,38.1,27h0c.4,2.2.5,4.5.5,6.7s-.4,4.3-.9,6.4c-3.1,12.9-13.5,22.7-26.6,25h-.1ZM320,195.5l.8,4.4c12.2-2.4,21.8-11.6,24.7-23.7.5-2,.8-4.1.8-6.1s0-4.3-.4-6.4h0c-1.4-8.3-6-15.5-12.8-20.4-6.7-4.7-14.7-6.7-22.8-5.5l.8,4.5c1.4-.2,2.7-.3,4-.3,14.9,0,27,12.1,27,27s-9.2,24.1-22,26.5h-.1Z"/>
  <path class="st2" d="M636.4,121.2c1.5-12.8,12-22.4,24.4-23.2l-.3-6.1c-17.8,1-31.4,16.2-30.5,33.9l6.3-.3v-4.4h0Z"/>
  <path class="st38" d="M630,126.6c-.2,0-.4,0-.5-.2,0,0-.2-.3-.2-.5-1-18.2,13-33.8,31.2-34.7.5,0,.8.3.8.7l.3,6.1c0,.4-.3.8-.7.8-12.3.8-22.3,10.2-23.7,22.5h0c-.2,1.3-.2,2.7,0,4.2,0,.4-.3.8-.7.8l-6.3.3h-.2ZM659.7,92.7c-16.7,1.3-29.5,15.6-29,32.3l4.8-.3v-3.7c1.5-12.8,11.6-22.6,24.4-23.8l-.2-4.6h0ZM636.4,121.2h0Z"/>
  <path class="st18" d="M694.1,128.9c.3-2.1.4-4.3.3-6.5h0c0,2.2,0,4.4-.3,6.5Z"/>
  <path class="st38" d="M694.1,129.6h0c-.4,0-.6-.4-.6-.7s0,0,0-.1v-.8c.2-1.4.3-2.9.2-4.3v-1.3h0c0-.4.3-.7.7-.7s.8.3.8.7v1.8c0,1.1,0,2.2-.2,3.3,0,.5,0,1.1-.2,1.6,0,.4-.4.6-.7.6h0Z"/>
  <path class="st15" d="M694.4,122.4h0c-1-17.8-16.2-31.4-33.9-30.5l.3,6.1h4.6c14.4,1.6,24.7,14.6,23.1,29-1.5,13-12.2,22.6-24.9,23.2l.3,6c13.3-.7,24.3-9.5,28.6-21.3.7-2,1.2-4,1.5-6.1.3-2.1.4-4.3.3-6.5h.1Z"/>
  <path class="st38" d="M663.9,157.1c-.2,0-.4,0-.5-.2,0-.1-.2-.3-.2-.5l-.3-6c0-.2,0-.4.2-.5,0-.1.3-.2.5-.2,12.6-.6,22.7-10,24.1-22.5,1.6-14-8.5-26.6-22.4-28.2-1.4-.2-2.9-.2-4.5,0-.2,0-.4,0-.5-.2-.2,0-.2-.3-.3-.5l-.3-6.1c0-.2,0-.4.2-.5,0,0,.3-.2.5-.2,8.8-.5,17.3,2.5,23.8,8.4,6.6,5.9,10.4,14,10.9,22.8h-.8.8c0,2.2,0,4.5-.3,6.7-.3,2.1-.9,4.3-1.6,6.3-4.5,12.5-16,21.1-29.3,21.8h0v-.4h0ZM664.4,151l.2,4.5c12.3-1,23-9,27.2-20.7.7-1.9,1.2-4,1.5-6,.3-2.1.4-4.2.3-6.4h0c-.5-8.4-4.2-16.1-10.4-21.7-6.1-5.5-13.8-8.3-22-8l.2,4.6h4c14.8,1.7,25.4,15.1,23.7,29.9-1.5,13-11.9,22.9-24.8,23.8h0Z"/>
  <path class="st38" d="M240.8,117.8c-.2,0-.4,0-.5-.2l-27.5-28.4c-.3-.3-.3-.8,0-1.1.3-.3.8-.3,1.1,0l27,27.9,29.7-27.9c.3-.3.7-.3,1,0l35.5,27.5c.3.3.4.7.1,1.1-.3.3-.7.4-1.1,0l-35-27.1-29.8,28c-.1,0-.3.2-.5.2h0Z"/>
  <path class="st2" d="M220.8,88.7c0,4.2-3.4,7.5-7.5,7.5s-7.5-3.4-7.5-7.5,3.4-7.5,7.5-7.5,7.5,3.4,7.5,7.5Z"/>
  <path class="st38" d="M213.3,97c-4.6,0-8.3-3.7-8.3-8.3s3.7-8.3,8.3-8.3,8.3,3.7,8.3,8.3-3.7,8.3-8.3,8.3ZM213.3,81.9c-3.7,0-6.8,3-6.8,6.8s3,6.8,6.8,6.8,6.8-3,6.8-6.8-3-6.8-6.8-6.8Z"/>
  <path class="st2" d="M278.6,88.7c0,4.2-3.4,7.5-7.5,7.5s-7.5-3.4-7.5-7.5,3.4-7.5,7.5-7.5,7.5,3.4,7.5,7.5Z"/>
  <path class="st38" d="M271.1,97c-4.6,0-8.3-3.7-8.3-8.3s3.7-8.3,8.3-8.3,8.3,3.7,8.3,8.3-3.7,8.3-8.3,8.3ZM271.1,81.9c-3.7,0-6.8,3-6.8,6.8s3,6.8,6.8,6.8,6.8-3,6.8-6.8-3-6.8-6.8-6.8Z"/>
  <path class="st17" d="M248.4,116.2c0,4.2-3.4,7.5-7.5,7.5s-7.5-3.4-7.5-7.5,3.4-7.5,7.5-7.5,7.5,3.4,7.5,7.5Z"/>
  <path class="st38" d="M240.8,124.5c-4.6,0-8.3-3.7-8.3-8.3s3.7-8.3,8.3-8.3,8.3,3.7,8.3,8.3-3.7,8.3-8.3,8.3ZM240.8,109.4c-3.7,0-6.8,3-6.8,6.8s3,6.8,6.8,6.8,6.8-3,6.8-6.8-3-6.8-6.8-6.8Z"/>
  <path class="st16" d="M314.1,116.2c0,4.2-3.4,7.5-7.5,7.5s-7.5-3.4-7.5-7.5,3.4-7.5,7.5-7.5,7.5,3.4,7.5,7.5Z"/>
  <path class="st38" d="M306.6,124.5c-4.6,0-8.3-3.7-8.3-8.3s3.7-8.3,8.3-8.3,8.3,3.7,8.3,8.3-3.7,8.3-8.3,8.3ZM306.6,109.4c-3.7,0-6.8,3-6.8,6.8s3,6.8,6.8,6.8,6.8-3,6.8-6.8-3-6.8-6.8-6.8Z"/>
  <path class="st38" d="M368.7,188.7c.8-.4,1.5-1,2.1-1.8.1-.2.3-.4.4-.6.1-.2.3-.4.3-.5l.3-.5,1-2,2.1-4,4.2-8.1,8.3-16.2,4.2-8.1,2.1-4.1.3-.6,1.8,2.6,5.2,7.5,10.4,15,10.4,15,5.2,7.5.3.5v.2c.1,0,.4.3.4.3.1.2.3.4.5.5.7.7,1.5,1.2,2.4,1.5,1.8.6,3.8.5,5.4-.5.8-.5,1.5-1.1,2.1-1.9.1-.2.3-.4.4-.6v-.2c.1,0,.4-.5.4-.5l1.1-2c5.9-10.6,11.7-21.3,17.5-31.9l8.7-16,6.8-12.5,2.7,14.9c.3,1.7,1.8,2.9,3.4,2.9h.7c1.9-.4,3.2-2.2,2.8-4.1l-5.2-28.7-24.8,9.4c-1.8.7-2.7,2.7-2.1,4.5.7,1.8,2.7,2.7,4.5,2.1l11.8-4.4-7.1,12.6-8.9,15.9c-5.9,10.6-11.9,21.2-17.8,31.8l-.5.9-4.4-6.3-10.4-15-10.4-15-5.2-7.5-2.6-3.7-.3-.5-.2-.2v-.2c-.1,0-.4-.3-.4-.3-.6-.7-1.4-1.4-2.3-1.8-1.8-.8-3.9-.7-5.6.2-.9.5-1.6,1.1-2.2,1.9-.1.2-.3.4-.4.6l-.2.3h0c0,.1-.3.6-.3.6l-1,2-2.1,4.1-4.1,8.1-8.2,16.3-4.1,8.1"/>
  <path class="st38" d="M432.5,193.8c-.8,0-1.6-.1-2.4-.4-1-.3-1.9-.9-2.7-1.7-.2-.2-.4-.4-.5-.6l-.7-1-32.2-46.4-21.8,42.5h0s-.2.3-.3.5c-.1.2-.3.4-.4.6-.6.8-1.4,1.5-2.3,2-.4.2-.8,0-1-.3-.2-.4,0-.8.3-1,.7-.4,1.4-.9,1.8-1.6.1-.2.2-.3.3-.5,0-.2.2-.4.2-.4l22.4-43.7c.1-.2.4-.4.6-.4.3,0,.5.1.7.3l33.6,48.4c.1.2.2.3.4.4.6.6,1.4,1.1,2.1,1.3,1.6.6,3.4.4,4.8-.4.7-.4,1.4-1,1.8-1.7.1-.2.2-.4.3-.5l1.5-2.7c4.1-7.4,8.2-14.8,12.2-22.3l20.8-38.2c.2-.3.5-.4.8-.4s.6.3.6.6l2.7,14.9c.2,1.3,1.4,2.3,2.7,2.3h.5c1.5-.3,2.5-1.7,2.2-3.2l-5.1-27.8-24,9c-.7.3-1.2.8-1.6,1.5-.3.7-.3,1.4,0,2.1.5,1.4,2.2,2.2,3.6,1.6l11.8-4.4c.3,0,.6,0,.8.2.2.2.2.6,0,.9l-21.4,38.2c-4.1,7.4-8.3,14.7-12.3,22.1l-.5.9c-.1.2-.4.4-.6.4-.3,0-.5-.1-.7-.3l-33.7-48.7c-.5-.7-1.3-1.2-2-1.6-1.6-.7-3.4-.6-5,.2s-1.5,1-1.9,1.7c-.1.2-.2.3-.3.5l-.5.9-19.5,38.6c-.2.4-.6.5-1,.3s-.5-.6-.3-1l19.8-39.1h0c0-.1.2-.4.2-.4.2-.3.3-.5.4-.7.6-.9,1.5-1.6,2.5-2.1,1.9-1,4.3-1.1,6.3-.2,1,.4,1.9,1.1,2.6,2l.9,1.2,32.2,46.5c4.1-7.4,8.2-14.7,12.3-22l20.4-36.4-9.8,3.7c-2.2.8-4.7-.3-5.5-2.5s-.4-2.2.1-3.3c.5-1,1.3-1.8,2.4-2.2l24.8-9.4h.6c.2,0,.3.3.4.5l5.2,28.7c.4,2.3-1.1,4.6-3.4,5h-.8c-2,0-3.8-1.5-4.2-3.5l-2.3-12.8-19.8,36.3c-4.1,7.4-8.1,14.9-12.2,22.3l-1.5,2.7c-.1.2-.3.4-.4.6-.6.9-1.4,1.6-2.3,2.1-1.1.6-2.4,1-3.6,1v.3h-.1Z"/>
  <path class="st2" d="M368.8,186.4c.8-.4,1.5-1,2.1-1.8.1-.2.3-.4.4-.6.1-.2.3-.4.3-.5l.3-.5,1-2,2.1-4,4.2-8.1,8.3-16.2,4.2-8.1,2.1-4.1.3-.6,1.8,2.6,5.2,7.5,10.4,15,10.4,15,5.2,7.5.3.5v.2c.1,0,.4.3.4.3.1.2.3.4.5.5.7.7,1.5,1.2,2.4,1.5,1.8.6,3.8.5,5.4-.5.8-.5,1.5-1.1,2.1-1.9.1-.2.3-.4.4-.6v-.2c.1,0,.4-.5.4-.5l1.1-2c5.9-10.6,11.7-21.3,17.5-31.9l8.7-16,6.8-12.5,2.7,14.9c.3,1.7,1.8,2.9,3.4,2.9h.7c1.9-.4,3.2-2.2,2.8-4.1l-5.2-28.7-24.8,9.4c-1.8.7-2.7,2.7-2.1,4.5.7,1.8,2.7,2.7,4.5,2.1l11.8-4.4-7.1,12.6-8.9,15.9c-5.9,10.6-11.9,21.2-17.8,31.8l-.5.9-4.4-6.3-10.4-15-10.4-15-5.2-7.5-2.6-3.7-.3-.5-.2-.2v-.2c-.1,0-.4-.3-.4-.3-.6-.7-1.4-1.4-2.3-1.8-1.8-.8-3.9-.7-5.6.2-.9.5-1.6,1.1-2.2,1.9-.1.2-.3.4-.4.6l-.2.3h0c0,.1-.3.6-.3.6l-1,2-2.1,4.1-4.1,8.1-8.2,16.3-4.1,8.1"/>
  <path class="st38" d="M432.6,191.5c-.8,0-1.6-.1-2.4-.4-1-.3-1.9-.9-2.7-1.7-.2-.2-.4-.4-.5-.6l-.7-1-32.2-46.4-21.8,42.5h0s-.2.3-.3.5c-.1.2-.3.4-.4.6-.6.8-1.4,1.5-2.3,2-.4.2-.8,0-1-.3-.2-.4,0-.8.3-1,.7-.4,1.4-.9,1.8-1.6.1-.2.2-.3.3-.5,0-.2.2-.4.2-.4l22.4-43.7c.1-.2.4-.4.6-.4.3,0,.5.1.7.3l33.6,48.4c.1.2.2.3.4.4.6.6,1.4,1.1,2.1,1.3,1.6.6,3.4.4,4.8-.4.7-.4,1.4-1,1.8-1.7.1-.2.2-.4.3-.5l1.5-2.7c4.1-7.4,8.1-14.8,12.2-22.2l20.9-38.3c.2-.3.5-.4.8-.4s.6.3.6.6l2.7,14.9c.2,1.3,1.4,2.3,2.7,2.3h.5c.7-.1,1.4-.5,1.8-1.2.4-.6.6-1.3.4-2.1l-5.1-27.8-24,9c-.7.3-1.2.8-1.5,1.5s-.3,1.4,0,2.1c.5,1.4,2.2,2.2,3.6,1.6l11.8-4.4c.3,0,.6,0,.8.2.2.2.2.6,0,.9l-21.3,38c-4.2,7.4-8.3,14.8-12.4,22.3l-.5.9c-.1.2-.4.4-.6.4-.3,0-.5-.1-.7-.3l-33.7-48.7c-.5-.7-1.3-1.2-2-1.6-1.6-.7-3.4-.7-5,.2-.8.4-1.5,1-1.9,1.7-.1.2-.2.3-.3.5l-.5,1-19.5,38.6c-.2.4-.6.5-1,.3s-.5-.6-.3-1l19.8-39.1v-.2l.2-.3c.2-.3.3-.5.4-.7.6-.9,1.5-1.6,2.5-2.1,1.9-1,4.3-1.1,6.3-.2,1,.4,1.9,1.1,2.6,2l.9,1.2,32.2,46.5c4.1-7.4,8.2-14.8,12.4-22.2l20.3-36.2-9.8,3.7c-2.2.8-4.7-.3-5.5-2.5s-.4-2.2.1-3.3c.5-1,1.3-1.8,2.4-2.2l24.8-9.4h.6c.2,0,.3.3.4.5l5.2,28.7c.2,1.1,0,2.3-.7,3.2s-1.6,1.6-2.8,1.8h-.8c-2,0-3.8-1.5-4.2-3.5l-2.3-12.8-19.9,36.4c-4,7.4-8.1,14.8-12.2,22.2l-1.5,2.7c-.1.2-.3.4-.4.6-.6.9-1.4,1.6-2.3,2.1-1.1.6-2.4,1-3.6,1v.4h0Z"/>
  <rect class="st13" x="517" y="75.5" width="18.5" height="45"/>
  <path class="st38" d="M535.5,121.2h-18.5c-.4,0-.8-.3-.8-.8v-45c0-.4.3-.8.8-.8h18.5c.4,0,.8.3.8.8v45c0,.4-.3.8-.8.8ZM517.8,119.7h17v-43.5h-17v43.5Z"/>
  <rect class="st2" x="546.7" y="55.5" width="18.5" height="65"/>
  <path class="st38" d="M565.2,121.2h-18.5c-.4,0-.8-.3-.8-.8V55.5c0-.4.3-.8.8-.8h18.5c.4,0,.8.3.8.8v65c0,.4-.3.8-.8.8h0ZM547.5,119.7h17v-63.5h-17v63.5Z"/>
  <rect class="st26" x="573.5" y="83" width="18.5" height="37.4"/>
  <path class="st38" d="M592,121.2h-18.5c-.4,0-.8-.3-.8-.8v-37.4c0-.4.3-.8.8-.8h18.5c.4,0,.8.3.8.8v37.4c0,.4-.3.8-.8.8ZM574.3,119.7h17v-35.9h-17v35.9Z"/>
  <g>
    <g>
      <path class="st38" d="M329.9,499.6c0,9.9-7.6,46.7-19.6,51l155.2-1.1c-10.2-3.7-16.7-39.1-16.7-47.6v-6.5h-118.9v4.1h0Z"/>
      <path class="st38" d="M603.7,165.7H172.1c-8.2,0-14.8,6.8-14.8,15.1v269.6h461.2V180.8c0-8.3-6.6-15.1-14.8-15.1Z"/>
      <g>
        <path class="st33" d="M157.3,454.1v26.6c0,8.2,6.6,14.8,14.8,14.8h431.7c8.2,0,14.8-6.6,14.8-14.8v-30.3H157.3v3.7h0Z"/>
        <path class="st38" d="M603.7,496.2H172.1c-8.6,0-15.5-7-15.5-15.5v-30.3c0-.4.3-.8.8-.8h461.2c.4,0,.8.3.8.8v30.3c0,8.6-7,15.5-15.5,15.5h-.2ZM158,451.2v29.5c0,7.7,6.3,14,14,14h431.7c7.7,0,14-6.3,14-14v-29.5H158Z"/>
      </g>
      <g>
        <g>
          <path class="st1" d="M399.5,474.2c0,6.4-5.2,11.6-11.6,11.6s-11.6-5.2-11.6-11.6,5.2-11.6,11.6-11.6,11.6,5.2,11.6,11.6Z"/>
          <path class="st38" d="M387.9,486.6c-6.8,0-12.3-5.5-12.3-12.3s5.5-12.3,12.3-12.3,12.3,5.5,12.3,12.3-5.5,12.3-12.3,12.3ZM387.9,463.4c-6,0-10.8,4.9-10.8,10.8s4.9,10.8,10.8,10.8,10.8-4.9,10.8-10.8-4.9-10.8-10.8-10.8Z"/>
        </g>
        <g>
          <path class="st33" d="M394.5,474.2c0,3.6-2.9,6.6-6.6,6.6s-6.6-2.9-6.6-6.6,2.9-6.6,6.6-6.6,6.6,2.9,6.6,6.6Z"/>
          <path class="st38" d="M387.9,481.6c-4,0-7.3-3.3-7.3-7.3s3.3-7.3,7.3-7.3,7.3,3.3,7.3,7.3-3.3,7.3-7.3,7.3ZM387.9,468.4c-3.2,0-5.8,2.6-5.8,5.8s2.6,5.8,5.8,5.8,5.8-2.6,5.8-5.8-2.6-5.8-5.8-5.8Z"/>
        </g>
      </g>
      <g>
        <g>
          <path class="st1" d="M399.5,474.2c0,6.4-5.2,11.6-11.6,11.6s-11.6-5.2-11.6-11.6,5.2-11.6,11.6-11.6,11.6,5.2,11.6,11.6Z"/>
          <path class="st38" d="M387.9,486.6c-6.8,0-12.3-5.5-12.3-12.3s5.5-12.3,12.3-12.3,12.3,5.5,12.3,12.3-5.5,12.3-12.3,12.3ZM387.9,463.4c-6,0-10.8,4.9-10.8,10.8s4.9,10.8,10.8,10.8,10.8-4.9,10.8-10.8-4.9-10.8-10.8-10.8Z"/>
        </g>
        <g>
          <path class="st33" d="M394.5,474.2c0,3.6-2.9,6.6-6.6,6.6s-6.6-2.9-6.6-6.6,2.9-6.6,6.6-6.6,6.6,2.9,6.6,6.6Z"/>
          <path class="st38" d="M387.9,481.6c-4,0-7.3-3.3-7.3-7.3s3.3-7.3,7.3-7.3,7.3,3.3,7.3,7.3-3.3,7.3-7.3,7.3ZM387.9,468.4c-3.2,0-5.8,2.6-5.8,5.8s2.6,5.8,5.8,5.8,5.8-2.6,5.8-5.8-2.6-5.8-5.8-5.8Z"/>
        </g>
      </g>
    </g>
    <g>
      <path class="st33" d="M578.6,433.6H197.2c-7.2,0-13.1-5.5-13.1-12.4v-223.8c0-6.8,5.8-12.4,13.1-12.4h381.4c7.2,0,13.1,5.5,13.1,12.4v223.8c0,6.8-5.9,12.4-13.1,12.4Z"/>
      <path class="st38" d="M578.6,434.4H197.2c-7.6,0-13.8-5.9-13.8-13.1v-223.8c0-7.2,6.2-13.1,13.8-13.1h381.4c7.6,0,13.8,5.9,13.8,13.1v223.8c0,7.2-6.2,13.1-13.8,13.1ZM197.2,185.8c-6.8,0-12.3,5.2-12.3,11.6v223.8c0,6.4,5.5,11.6,12.3,11.6h381.4c6.8,0,12.3-5.2,12.3-11.6v-223.8c0-6.4-5.5-11.6-12.3-11.6H197.2Z"/>
    </g>
    <g>
      <path class="st33" d="M310,561.6h211.1l-11.1-6.1c-9-5-19.1-7.6-29.4-7.6h-185.4c-10.3,0-20.4,2.6-29.4,7.6l-11.1,6.1h55.3Z"/>
      <path class="st38" d="M521.1,562.3H254.7c-.3,0-.6-.2-.7-.6,0-.3,0-.7.4-.8l11.1-6.1c9.1-5,19.4-7.7,29.8-7.7h185.4c10.4,0,20.7,2.7,29.8,7.7l11.1,6.1c.3.2.5.5.4.8,0,.3-.4.6-.7.6h-.2ZM257.6,560.8h260.5l-8.5-4.7c-8.9-4.9-18.9-7.5-29.1-7.5h-185.4c-10.1,0-20.2,2.6-29.1,7.5l-8.5,4.7h.1Z"/>
    </g>
  </g>
  <g>
    <g>
      <circle class="st25" cx="528.6" cy="206.8" r="43.1" transform="translate(8.6 434.3) rotate(-45)"/>
      <path class="st38" d="M528.5,250.7c-7.6,0-15.3-2-22.3-6.1-10.1-6-17.2-15.5-20.1-26.9-2.9-11.3-1.2-23.1,4.8-33.2,12.3-20.8,39.3-27.7,60.1-15.3,20.8,12.3,27.7,39.3,15.3,60.1-8.2,13.8-22.8,21.4-37.8,21.4h0ZM492.2,185.2c-5.8,9.7-7.4,21.1-4.6,32.1,2.8,11,9.7,20.2,19.4,25.9,20.1,11.9,46.1,5.3,58-14.8s5.3-46.1-14.8-58c-20.1-11.9-46.1-5.3-58,14.8h0Z"/>
    </g>
    <g>
      <circle class="st33" cx="528.6" cy="206.8" r="32.3" transform="translate(8.6 434.3) rotate(-45)"/>
      <path class="st38" d="M528.6,239.9c-18.2,0-33-14.8-33-33s14.8-33,33-33,33,14.8,33,33-14.8,33-33,33ZM528.6,175.3c-17.4,0-31.5,14.1-31.5,31.5s14.1,31.5,31.5,31.5,31.5-14.1,31.5-31.5-14.1-31.5-31.5-31.5Z"/>
    </g>
    <g>
      <path class="st22" d="M509.1,195.3c-6.4,10.8-2.8,24.6,7.9,31,10.8,6.4,24.6,2.8,31-7.9,6.4-10.8,2.8-24.6-7.9-31-10.8-6.4-24.6-2.8-31,7.9h0Z"/>
      <path class="st38" d="M528.5,230.2c-4.1,0-8.2-1.1-11.9-3.3-5.4-3.2-9.2-8.3-10.7-14.3-1.5-6.1-.6-12.3,2.6-17.7,6.6-11.1,21-14.8,32.1-8.2s14.8,21,8.2,32.1c-3.2,5.4-8.3,9.2-14.3,10.7-1.9.5-3.9.7-5.8.7h-.2ZM528.6,184.9c-7.5,0-14.8,3.8-18.9,10.7h0c-3,5-3.8,10.9-2.4,16.6,1.4,5.7,5,10.4,10,13.4s10.9,3.8,16.6,2.4c5.7-1.4,10.4-5,13.4-10,6.2-10.4,2.7-23.8-7.6-30-3.5-2.1-7.3-3.1-11.1-3.1h0ZM509.1,195.3h0Z"/>
    </g>
    <g>
      <path class="st33" d="M515,206.8c0-7.5,6.1-13.6,13.6-13.6s13.6,6.1,13.6,13.6-6.1,13.6-13.6,13.6-13.6-6.1-13.6-13.6ZM522.4,206.8c0,3.4,2.8,6.2,6.2,6.2s6.2-2.8,6.2-6.2-2.8-6.2-6.2-6.2-6.2,2.8-6.2,6.2Z"/>
      <path class="st38" d="M528.6,221.2c-7.9,0-14.3-6.4-14.3-14.3s6.4-14.3,14.3-14.3,14.3,6.4,14.3,14.3-6.4,14.3-14.3,14.3ZM528.6,194c-7.1,0-12.8,5.8-12.8,12.8s5.8,12.8,12.8,12.8,12.8-5.8,12.8-12.8-5.8-12.8-12.8-12.8ZM528.6,213.8c-3.8,0-7-3.1-7-7s3.1-7,7-7,7,3.1,7,7-3.1,7-7,7ZM528.6,201.4c-3,0-5.4,2.4-5.4,5.4s2.4,5.4,5.4,5.4,5.4-2.4,5.4-5.4-2.4-5.4-5.4-5.4Z"/>
    </g>
    <path class="st38" d="M528.1,207.9c.2,0,.5,0,.7-.3.4-.4.5-1.1,0-1.5l-28.3-32.9c-.4-.4-1.1-.5-1.5-.1s-.5,1.1-.1,1.5l28.3,32.9c.2.2.5.4.8.4h0Z"/>
    <g>
      <path class="st33" d="M501.3,175.9c.3,0,.5-.1.5-.4l-2.3-11.2c-.1-.6-.7-1-1.4-.9-.6.1-1,.7-.9,1.4l1.4,7.1c0,.3-.2.5-.5.4l-7.5-2.8c-.6-.2-1.3,0-1.5.7-.2.6,0,1.3.7,1.5l11.4,4.2h0Z"/>
      <path class="st38" d="M501.4,176.5h-.3l-11.4-4.2c-.4-.2-.8-.5-1-.9s-.2-.9,0-1.3c.2-.4.5-.8.9-1s.9-.2,1.3,0l7.2,2.6-1.4-6.7c-.2-.9.4-1.8,1.4-2,.5,0,.9,0,1.3.3s.6.6.7,1.1l2.3,11.2c0,.3,0,.7-.3.9-.2.1-.4.2-.6.2v-.2h-.1ZM490.3,170h-.2c-.1,0-.3.2-.3.3v.5c0,.1.2.3.3.3l11.1,4.1-2.2-10.8c0-.2-.1-.3-.3-.4-.1,0-.3-.1-.4,0-.3,0-.5.4-.5.7l1.4,7.1c0,.3,0,.7-.3.9s-.6.3-.9.2l-7.5-2.8h-.2Z"/>
    </g>
    <g>
      <path class="st33" d="M504.6,179.8c.3,0,.5-.1.5-.4l-2.3-11.2c-.1-.6-.7-1-1.4-.9-.6.1-1,.7-.9,1.4l1.4,7.1c0,.3-.2.5-.5.4l-7.5-2.8c-.6-.2-1.3,0-1.5.7-.2.6,0,1.3.7,1.5l11.4,4.2h0Z"/>
      <path class="st38" d="M504.8,180.4h-.3l-11.4-4.2c-.4-.2-.8-.5-1-.9s-.2-.9,0-1.3c.2-.4.5-.8.9-1s.9-.2,1.3,0l7.2,2.6-1.4-6.7c-.2-.9.4-1.8,1.4-2,.9-.2,1.8.4,2,1.4l2.3,11.2c0,.3,0,.7-.3.9-.2.1-.4.2-.6.2v-.2h-.1ZM504.8,179.3h0ZM493.6,173.9h-.2c-.1,0-.3.2-.3.3v.5c0,.1.2.3.3.3l11.1,4.1-2.2-10.8c0-.3-.4-.5-.7-.5s-.5.4-.5.7l1.4,7.1c0,.3,0,.7-.3.9s-.6.3-.9.2l-7.5-2.8h-.2,0Z"/>
    </g>
  </g>
  <g>
    <g>
      <rect class="st38" x="216.4" y="223.5" width="198.6" height="142"/>
      <path class="st38" d="M415,366.2h-198.6c-.4,0-.8-.3-.8-.8v-142c0-.4.3-.8.8-.8h198.6c.4,0,.8.3.8.8v142c0,.4-.3.8-.8.8ZM217.1,364.7h197.1v-140.5h-197.1v140.5Z"/>
    </g>
    <g>
      <rect class="st30" x="220.7" y="218.8" width="198.6" height="142"/>
      <path class="st38" d="M419.3,361.6h-198.6c-.4,0-.8-.3-.8-.8v-142c0-.4.3-.8.8-.8h198.6c.4,0,.8.3.8.8v142c0,.4-.3.8-.8.8ZM221.4,360.1h197.1v-140.5h-197.1v140.5Z"/>
    </g>
    <g>
      <rect class="st20" x="220.7" y="218.8" width="198.6" height="15.9"/>
      <path class="st38" d="M419.3,235.5h-198.6c-.4,0-.8-.3-.8-.8v-15.9c0-.4.3-.8.8-.8h198.6c.4,0,.8.3.8.8v15.9c0,.4-.3.8-.8.8ZM221.4,233.9h197.1v-14.4h-197.1v14.4Z"/>
    </g>
    <path class="st38" d="M395.6,275.9h-60.3c-.4,0-.8-.3-.8-.8s.3-.8.8-.8h60.3c.4,0,.8.3.8.8s-.3.8-.8.8Z"/>
    <path class="st38" d="M365.4,304.9h-30.2c-.4,0-.8-.3-.8-.8s.3-.8.8-.8h30.2c.4,0,.8.3.8.8s-.3.8-.8.8Z"/>
    <path class="st38" d="M357.8,290.6h-22.5c-.4,0-.8-.3-.8-.8s.3-.8.8-.8h22.5c.4,0,.8.3.8.8s-.3.8-.8.8Z"/>
    <path class="st38" d="M395.6,290.6h-22.5c-.4,0-.8-.3-.8-.8s.3-.8.8-.8h22.5c.4,0,.8.3.8.8s-.3.8-.8.8Z"/>
  </g>
  <g>
    <rect class="st38" x="239.7" y="242.8" width="20.7" height="88.2"/>
    <path class="st38" d="M260.3,331.7h-20.7c-.4,0-.8-.3-.8-.8v-88.2c0-.4.3-.8.8-.8h20.7c.4,0,.8.3.8.8v88.2c0,.4-.3.8-.8.8ZM240.4,330.2h19.2v-86.7h-19.2v86.7h0Z"/>
  </g>
  <g>
    <rect class="st2" x="302.7" y="257.6" width="20.7" height="73.4"/>
    <path class="st38" d="M323.4,331.7h-20.7c-.4,0-.8-.3-.8-.8v-73.4c0-.4.3-.8.8-.8h20.7c.4,0,.8.3.8.8v73.4c0,.4-.3.8-.8.8ZM303.5,330.2h19.2v-71.9h-19.2v71.9Z"/>
  </g>
  <g>
    <g>
      <g>
        <path class="st38" d="M454.2,419.8h-91.4c-1.3,0-2.3-1-2.3-2.3v-86.5c0-1.3,1-2.3,2.3-2.3h28c1,0,1.8.6,2.2,1.5l3.5,9.9c.1.4.4.7.7,1l65.9,54.1c.8.6,1,1.7.7,2.6l-7.5,20.5c-.3.9-1.2,1.5-2.2,1.5h0Z"/>
        <path class="st38" d="M454.2,420.6h-91.4c-1.7,0-3.1-1.4-3.1-3.1v-86.5c0-1.7,1.4-3.1,3.1-3.1h28c1.3,0,2.4.8,2.9,2l3.5,9.9c0,.3.3.5.5.7l65.9,54.1c1,.8,1.4,2.2.9,3.4l-7.5,20.5c-.4,1.2-1.6,2-2.9,2h.1ZM362.8,329.5c-.9,0-1.5.7-1.5,1.6v86.5c0,.9.7,1.6,1.5,1.6h91.4c.6,0,1.2-.4,1.5-1l7.5-20.5c.2-.6,0-1.3-.5-1.7l-65.9-54.1c-.4-.4-.8-.8-.9-1.3l-3.5-9.9c-.2-.6-.8-1-1.5-1h-28v-.2h-.1Z"/>
      </g>
      <g>
        <path class="st30" d="M453.5,414.5h-86.9c-1.3,0-2.3-1-2.3-2.3v-86.5c0-1.3,1-2.3,2.3-2.3h28c1,0,1.8.6,2.2,1.5l3.2,8.9c.3.9,1.2,1.5,2.2,1.5h51.4c1.3,0,2.3,1,2.3,2.3v74.5c0,1.3-1,2.3-2.3,2.3h-.1Z"/>
        <path class="st38" d="M453.5,415.3h-86.9c-1.7,0-3.1-1.4-3.1-3.1v-86.5c0-1.7,1.4-3.1,3.1-3.1h28c1.3,0,2.4.8,2.9,2l3.2,8.9c.2.6.8,1,1.5,1h51.4c1.7,0,3.1,1.4,3.1,3.1v74.5c0,1.7-1.4,3.1-3.1,3.1h-.1ZM366.6,324.2c-.9,0-1.6.7-1.6,1.6v86.5c0,.9.7,1.6,1.6,1.6h86.9c.9,0,1.5-.7,1.5-1.6v-74.5c0-.9-.7-1.6-1.5-1.6h-51.4c-1.3,0-2.4-.8-2.9-2l-3.2-8.9c-.2-.6-.8-1-1.5-1h-28,.1Z"/>
      </g>
      <path class="st5" d="M453.5,414.5h-86.9c-1.3,0-2.3-1-2.3-2.3v-86.5c0-1.3,1-2.3,2.3-2.3h28c1,0,1.8.6,2.2,1.5l3.2,8.9c.3.9,1.2,1.5,2.2,1.5h51.4c1.3,0,2.3,1,2.3,2.3v74.5c0,1.3-1,2.3-2.3,2.3h-.1Z"/>
    </g>
    <g>
      <path class="st38" d="M310.4,380.3l-29.8-30.8c-.3-.3-.3-.8,0-1.1.3-.3.8-.3,1.1,0l28.8,29.7,32.1-30.2,38.3,29.7c.3.3.4.7.1,1.1-.3.3-.7.4-1.1.1l-37.3-28.9-32.3,30.3h0Z"/>
      <g>
        <path class="st21" d="M289.2,349.1c0,4.4-3.6,8-8,8s-8-3.6-8-8,3.6-8,8-8,8,3.6,8,8Z"/>
        <path class="st38" d="M281.1,357.8c-4.8,0-8.8-3.9-8.8-8.8s3.9-8.8,8.8-8.8,8.8,3.9,8.8,8.8-3.9,8.8-8.8,8.8ZM281.1,341.8c-4,0-7.3,3.3-7.3,7.3s3.3,7.3,7.3,7.3,7.3-3.3,7.3-7.3-3.3-7.3-7.3-7.3Z"/>
      </g>
      <g>
        <path class="st28" d="M350.7,349.1c0,4.4-3.6,8-8,8s-8-3.6-8-8,3.6-8,8-8,8,3.6,8,8Z"/>
        <path class="st38" d="M342.6,357.8c-4.8,0-8.8-3.9-8.8-8.8s3.9-8.8,8.8-8.8,8.8,3.9,8.8,8.8-3.9,8.8-8.8,8.8ZM342.6,341.8c-4,0-7.3,3.3-7.3,7.3s3.3,7.3,7.3,7.3,7.3-3.3,7.3-7.3-3.3-7.3-7.3-7.3Z"/>
      </g>
      <g>
        <path class="st20" d="M318.4,378.4c0,4.4-3.6,8-8,8s-8-3.6-8-8,3.6-8,8-8,8,3.6,8,8Z"/>
        <path class="st38" d="M310.4,387.1c-4.8,0-8.8-3.9-8.8-8.8s3.9-8.8,8.8-8.8,8.8,3.9,8.8,8.8-3.9,8.8-8.8,8.8ZM310.4,371.1c-4,0-7.3,3.3-7.3,7.3s3.3,7.3,7.3,7.3,7.3-3.3,7.3-7.3-3.3-7.3-7.3-7.3Z"/>
      </g>
      <g>
        <path class="st2" d="M388.4,378.4c0,4.4-3.6,8-8,8s-8-3.6-8-8,3.6-8,8-8,8,3.6,8,8Z"/>
        <path class="st38" d="M380.4,387.1c-4.8,0-8.8-3.9-8.8-8.8s3.9-8.8,8.8-8.8,8.8,3.9,8.8,8.8-3.9,8.8-8.8,8.8ZM380.4,371.1c-4,0-7.3,3.3-7.3,7.3s3.3,7.3,7.3,7.3,7.3-3.3,7.3-7.3-3.3-7.3-7.3-7.3Z"/>
      </g>
    </g>
    <g>
      <path class="st23" d="M388.1,360.8l-22.3,50.5c-.7,1.5.4,3.2,2.1,3.2h92.2c.9,0,1.7-.5,2.1-1.4l22.7-50.5c.7-1.5-.4-3.3-2.1-3.3h-92.6c-.9,0-1.7.5-2.1,1.4h0Z"/>
      <path class="st38" d="M460,415.3h-92.2c-1,0-2-.5-2.6-1.4s-.7-2-.2-2.9l22.3-50.5h0c.5-1.1,1.6-1.8,2.8-1.8h92.6c1,0,2,.5,2.6,1.4s.6,2,.2,2.9l-22.7,50.5c-.5,1.1-1.6,1.8-2.8,1.8h0ZM388.7,361.1l-22.3,50.5c-.2.5-.2,1,.1,1.5.3.4.8.7,1.3.7h92.2c.6,0,1.2-.4,1.4-.9l22.7-50.5c.2-.5.2-1-.1-1.5-.3-.5-.8-.7-1.3-.7h-92.6c-.6,0-1.2.4-1.4.9h0Z"/>
    </g>
    <g>
      <g>
        <path class="st33" d="M459,361.3c-1.5-1.2-3.4-1.9-5.5-1.9h-44,.1c4.2.6,7.5,4,7.9,8.3v46.9c0,6.8,5.5,12.4,12.4,12.4h35.1v-55.3c0-4.5-2.4-8.4-5.9-10.6v.2h-.1Z"/>
        <path class="st38" d="M464.9,427.9h-35.1c-7.2,0-13.1-5.9-13.1-13.1v-46.9c-.3-3.9-3.4-7.1-7.2-7.6-.4,0-.8-.4-.8-.8s.3-.8.8-.8h43.9c2.2,0,4.2.7,5.9,2,3.9,2.4,6.3,6.6,6.3,11.2v55.3c0,.4-.3.8-.8.8h.1ZM413.6,360.2c2.6,1.6,4.3,4.4,4.6,7.6v47c0,6.4,5.2,11.6,11.6,11.6h34.3v-54.5c0-4.1-2.1-7.8-5.6-9.9h0c-1.5-1.1-3.2-1.7-5-1.7h-39.9Z"/>
      </g>
      <g>
        <path class="st30" d="M436.3,418v-5.2h45.1v5.1c0,5.1-4,9.2-9.1,9.2h-42.4c-.5,0-1.1,0-1,0,4.2-.8,7.5-4.6,7.5-9.1h-.1Z"/>
        <path class="st38" d="M472.3,427.9h-42.7c-.9,0-1.5,0-1.5-.7s.2-.7.6-.8c3.9-.8,6.9-4.4,6.9-8.4v-5.2c0-.2,0-.4.2-.5.1-.1.3-.2.5-.2h45.1c.4,0,.8.3.8.7v5.2c0,5.5-4.4,9.9-9.8,10h-.1ZM432.5,426.4h39.8c2.2,0,4.3-.9,5.9-2.5s2.4-3.7,2.4-6v-4.5h-43.6v4.4h0c0,3.4-1.8,6.6-4.6,8.4v.2h.1Z"/>
      </g>
      <path class="st38" d="M453.1,370.9h-27.7c-.4,0-.8-.3-.8-.8s.3-.8.8-.8h27.7c.4,0,.8.3.8.8s-.3.8-.8.8Z"/>
      <path class="st38" d="M454.7,380.3h-27.7c-.4,0-.8-.3-.8-.8s.3-.8.8-.8h27.7c.4,0,.8.3.8.8s-.3.8-.8.8Z"/>
      <path class="st38" d="M455.1,390.4h-27.7c-.4,0-.8-.3-.8-.8s.3-.8.8-.8h27.7c.4,0,.8.3.8.8s-.3.8-.8.8Z"/>
      <path class="st38" d="M454.9,400.3h-27.7c-.4,0-.8-.3-.8-.8s.3-.8.8-.8h27.7c.4,0,.8.3.8.8s-.3.8-.8.8Z"/>
    </g>
  </g>
  <g>
    <g>
      <path class="st40" d="M446.5,281c0-10.1,7.3-18.5,16.9-20.2l-.8-4.7c-13.7,2.3-23,15.4-20.7,29.1l4.8-.8c-.2-1.1-.3-2.2-.3-3.4h.1Z"/>
      <path class="st38" d="M442,286c-.4,0-.7-.3-.7-.6-1.2-6.8.4-13.7,4.4-19.4,4-5.7,10-9.4,16.8-10.6.2,0,.4,0,.6.1s.3.3.3.5l.8,4.7c0,.4-.2.8-.6.9-9.4,1.7-16.3,9.8-16.3,19.4s0,2.1.3,3.3c0,.4-.2.8-.6.9l-4.8.8h-.2,0ZM462,257c-6.1,1.2-11.5,4.7-15.1,9.8-3.6,5.1-5.2,11.3-4.3,17.5l3.4-.6c-.1-1-.2-1.9-.2-2.8,0-10.1,7-18.7,16.8-20.8l-.5-3.2h0Z"/>
    </g>
    <path class="st33" d="M492.1,281.9c0-1.7,0-3.4-.3-5.1h0c.3,1.7.4,3.4.3,5.1Z"/>
    <g>
      <path class="st2" d="M467,301.5c-10.2,0-18.6-7.4-20.2-17.1l-4.8.8c2.3,13.7,15.4,23,29.1,20.7l-.8-4.6c-1.1.2-2.1.3-3.2.3h-.1Z"/>
      <path class="st38" d="M466.8,307c-5.3,0-10.5-1.6-15-4.8-5.7-4-9.4-10-10.6-16.8,0-.4.2-.8.6-.9l4.8-.8c.2,0,.4,0,.6.1s.3.3.3.5c1.6,9.6,9.8,16.5,19.5,16.5s2,0,3.1-.3c.4,0,.8.2.9.6l.8,4.6c0,.4-.2.8-.6.9-1.5.2-2.9.4-4.4.4h0ZM442.8,285.9c1.2,6.1,4.7,11.5,9.8,15.1,5.1,3.6,11.3,5.2,17.5,4.3l-.5-3.2c-.9.1-1.8.2-2.6.2-10.2,0-18.8-7.1-20.8-17l-3.4.6Z"/>
    </g>
    <g>
      <path class="st35" d="M491.7,276.8h0c-2.3-13.7-15.4-23-29.1-20.7l.8,4.7c1.2-.2,2.4-.3,3.6-.3,11.3,0,20.5,9.2,20.5,20.5s-7.5,18.7-17.3,20.2l.8,4.6c10.3-1.7,18.1-9.5,20.3-19.1.4-1.6.6-3.2.7-4.9,0-1.7,0-3.4-.3-5.1h0Z"/>
      <path class="st38" d="M471.1,306.7c-.2,0-.3,0-.4-.1-.2-.1-.3-.3-.3-.5l-.8-4.6c0-.2,0-.4.1-.6s.3-.3.5-.3c9.6-1.5,16.6-9.7,16.6-19.5s-8.9-19.8-19.8-19.8-2.2.1-3.5.3c-.2,0-.4,0-.6-.1s-.3-.3-.3-.5l-.8-4.7c0-.4.2-.8.6-.9,6.8-1.2,13.7.4,19.4,4.4,5.7,4,9.4,10,10.6,16.8.3,1.7.4,3.5.4,5.3s-.3,3.4-.7,5.1c-2.4,10.2-10.6,17.9-21,19.6h-.1,0ZM471.1,301.9l.5,3.2c9.4-1.9,16.8-9,19-18.4.4-1.6.6-3.2.6-4.8s0-3.3-.3-4.9h0c-1.1-6.4-4.6-12.1-10-15.9-5.1-3.6-11.3-5.2-17.5-4.3l.5,3.2c1-.2,2-.2,3-.2,11.7,0,21.3,9.5,21.3,21.3s-7.2,18.9-17.2,20.8h.1Z"/>
    </g>
  </g>
  <g>
    <path class="st24" d="M518.3,358.3v-23.2c-12.8,0-23.2,10.4-23.2,23.2s10.4,23.2,23.2,23.2,23.2-10.4,23.2-23.2h-23.2Z"/>
    <path class="st38" d="M518.3,382.3c-13.2,0-23.9-10.7-23.9-23.9s10.7-23.9,23.9-23.9.8.3.8.8v22.4h22.4c.4,0,.8.3.8.8,0,13.2-10.7,23.9-23.9,23.9h0ZM517.5,335.9c-12,.4-21.7,10.3-21.7,22.4s10.1,22.4,22.4,22.4,22-9.7,22.4-21.7h-22.4c-.4,0-.8-.3-.8-.8v-22.4h0Z"/>
  </g>
  <g>
    <g>
      <rect class="st30" x="78.1" y="265" width="38.4" height="4.9"/>
      <path class="st38" d="M116.5,270.7h-38.4c-.4,0-.8-.3-.8-.8v-4.9c0-.2,0-.4.2-.5,0-.1.3-.2.5-.2h38.4c.4,0,.8.3.8.8v4.9c0,.2,0,.4-.2.5,0,.1-.3.2-.5.2ZM78.8,269.2h36.9v-3.4h-36.9v3.4Z"/>
    </g>
    <g>
      <rect class="st30" x="94.5" y="255.9" width="22.1" height="3.2"/>
      <path class="st38" d="M116.5,259.8h-22.1c-.2,0-.4,0-.5-.2,0-.1-.2-.3-.2-.5v-3.2c0-.4.3-.8.8-.8h22.1c.2,0,.4,0,.5.2,0,.1.2.3.2.5v3.2c0,.4-.3.8-.8.8h0ZM95.2,258.3h20.5v-1.7h-20.5v1.7Z"/>
    </g>
    <g>
      <rect class="st30" x="94.5" y="246.7" width="22.1" height="3.2"/>
      <path class="st38" d="M116.5,250.6h-22.1c-.2,0-.4,0-.5-.2,0-.1-.2-.3-.2-.5v-3.2c0-.4.3-.8.8-.8h22.1c.4,0,.8.3.8.8v3.2c0,.2,0,.4-.2.5,0,.1-.3.2-.5.2h-.2ZM95.2,249.1h20.5v-1.7h-20.5v1.7Z"/>
    </g>
  </g>
  <g>
    <path class="st3" d="M665.7,345c-.5,3.4,1.8,6.5,5.1,7,3.4.5,6.5-1.8,7-5.1.5-3.4-1.8-6.5-5.1-7-3.4-.5-6.5,1.8-7,5.1Z"/>
    <path class="st38" d="M671.8,352.8h-1.1c-1.8-.3-3.4-1.2-4.5-2.7s-1.5-3.3-1.3-5.1c.3-1.8,1.2-3.4,2.7-4.5s3.3-1.5,5.1-1.3c3.8.6,6.3,4.1,5.8,7.9-.3,1.8-1.2,3.4-2.7,4.5-1.2.9-2.6,1.3-4.1,1.3h0ZM671.8,340.5c-1.1,0-2.2.4-3.2,1-1.2.9-1.9,2.1-2.1,3.5h0c-.2,1.4,0,2.8,1,4s2.1,1.9,3.5,2.1,2.8-.1,4-1,1.9-2.1,2.1-3.5c.5-2.9-1.6-5.7-4.5-6.1h-.8ZM665.7,345h0Z"/>
  </g>
  <g>
    <path class="st2" d="M660.3,250.1c1.3,1.8,3.8,2.2,5.6.9s2.2-3.8.9-5.6-3.8-2.2-5.6-.9-2.2,3.8-.9,5.6Z"/>
    <path class="st38" d="M663.5,252.5h-.7c-1.3-.2-2.4-.9-3.1-1.9-.8-1-1.1-2.3-.9-3.5.2-1.3.9-2.4,1.9-3.1,2.1-1.6,5.1-1.1,6.7,1,1.6,2.1,1.1,5.1-1,6.7-.8.6-1.8.9-2.8.9h-.1ZM663.5,244.5c-.7,0-1.3.2-1.9.6-.7.5-1.2,1.3-1.3,2.1,0,.9,0,1.7.6,2.4h0c.5.7,1.3,1.2,2.1,1.3.9.1,1.7,0,2.4-.6.7-.5,1.2-1.3,1.3-2.1,0-.9,0-1.7-.6-2.4-.6-.9-1.6-1.3-2.6-1.3Z"/>
  </g>
  <g>
    <g>
      <rect class="st30" x="650.5" y="284.1" width="32" height="4.1"/>
      <path class="st38" d="M682.4,288.9h-32c-.4,0-.8-.3-.8-.8v-4.1c0-.4.3-.8.8-.8h32c.4,0,.8.3.8.8v4.1c0,.4-.3.8-.8.8ZM651.2,287.4h30.4v-2.6h-30.4v2.6Z"/>
    </g>
    <g>
      <rect class="st30" x="650.5" y="293.2" width="18.3" height="2.7"/>
      <path class="st38" d="M668.8,296.6h-18.3c-.4,0-.8-.3-.8-.8v-2.7c0-.4.3-.8.8-.8h18.3c.4,0,.8.3.8.8v2.7c0,.4-.3.8-.8.8ZM651.2,295.1h16.8v-1.1h-16.8v1.1Z"/>
    </g>
    <g>
      <rect class="st30" x="650.5" y="300.8" width="18.3" height="2.7"/>
      <path class="st38" d="M668.8,304.2h-18.3c-.4,0-.8-.3-.8-.8v-2.7c0-.4.3-.8.8-.8h18.3c.4,0,.8.3.8.8v2.7c0,.4-.3.8-.8.8ZM651.2,302.7h16.8v-1.1h-16.8v1.1Z"/>
    </g>
  </g>
  <g>
    <g>
      <path class="st4" d="M638.8,466.4h0c3.3-3.7,2.1-10.3-2.9-14.8l-65.5-59.7c-4.9-4.5-11.7-5.2-15-1.5h0c-3.3,3.7-2.1,10.3,2.9,14.8l65.5,59.7c4.9,4.5,11.7,5.2,15,1.5Z"/>
      <path class="st38" d="M633,469.5h-1.2c-3-.3-6-1.7-8.5-4l-65.5-59.7c-2.5-2.3-4.2-5.2-4.8-8.1-.6-3,0-5.8,1.8-7.7,1.8-2,4.5-2.9,7.5-2.6s6,1.7,8.5,4l65.5,59.7c2.5,2.3,4.2,5.2,4.8,8.1.6,3,0,5.8-1.8,7.7h0c-1.6,1.7-3.8,2.6-6.4,2.6h.1ZM561.2,388.8c-2.2,0-4,.7-5.3,2.1-1.5,1.6-2,3.9-1.5,6.4.5,2.6,2,5.2,4.3,7.3l65.5,59.7c2.3,2.1,5,3.4,7.7,3.6,2.6.3,4.8-.5,6.3-2.1h0c1.5-1.6,2-3.9,1.5-6.4-.5-2.6-2-5.2-4.3-7.3l-65.5-59.7c-2.3-2.1-5-3.4-7.7-3.6h-1Z"/>
    </g>
    <g>
      <path class="st32" d="M713.9,533.7h0c5.5-6,4.3-16.1-2.7-22.5l-92.9-84.6c-7-6.4-17.1-6.7-22.6-.6h0c-5.5,6-4.3,16.1,2.7,22.5l92.9,84.6c7,6.4,17.1,6.7,22.6.6h0Z"/>
      <path class="st4" d="M703.6,538.9h-.5c-4.5,0-8.9-2-12.4-5.2l-92.9-84.6c-7.3-6.6-8.5-17.2-2.8-23.6,2.8-3.1,6.8-4.7,11.3-4.6s8.9,2,12.4,5.2l92.9,84.6c7.3,6.6,8.5,17.2,2.8,23.6-2.7,3-6.6,4.6-10.9,4.6h.1ZM606,422.4c-3.9,0-7.3,1.5-9.8,4.1-5.2,5.7-4,15.3,2.7,21.4l92.9,84.6c3.3,3,7.3,4.7,11.4,4.8,4,0,7.7-1.3,10.2-4.1,5.2-5.7,4-15.3-2.7-21.4l-92.9-84.6c-3.3-3-7.3-4.7-11.4-4.8h-.4Z"/>
    </g>
    <g>
      <g>
        <rect class="st31" x="548.6" y="390" width="36" height="22" rx="7.1" ry="7.1" transform="translate(-108.3 563.2) rotate(-48.8)"/>
        <path class="st38" d="M562.2,419.1c-1.9,0-3.7-.7-5.2-2l-5.8-5.1c-3.3-2.9-3.6-7.8-.7-11.1l14.3-16.4c2.9-3.3,7.8-3.6,11.1-.7l5.8,5.1c1.6,1.4,2.5,3.3,2.7,5.4,0,2.1-.6,4.1-1.9,5.7l-14.3,16.4c-1.4,1.6-3.3,2.5-5.4,2.7h-.6,0ZM570.7,383.4c-1.8,0-3.5.7-4.8,2.2l-14.3,16.4c-2.3,2.6-2,6.7.6,9l5.8,5.1c1.3,1.1,2.9,1.7,4.6,1.6,1.7-.1,3.2-.9,4.4-2.2h0l14.3-16.4c1.1-1.3,1.7-2.9,1.6-4.6,0-1.7-.9-3.2-2.2-4.4l-5.8-5.1c-1.2-1.1-2.7-1.6-4.2-1.6h0Z"/>
      </g>
      <path class="st9" d="M567.5,416l14.3-16.4c2.6-3,2.3-7.4-.7-10l-5.8-5.1c-3-2.6-7.4-2.3-10,.7l-14.3,16.4c-2.6,3-2.3,7.4.7,10l5.8,5.1c3,2.6,7.4,2.3,10-.7Z"/>
      <g>
        <path class="st36" d="M453.3,403.6c31.7,27.8,79.9,24.6,107.7-7.1s24.6-79.9-7.1-107.7c-31.7-27.8-79.9-24.6-107.7,7.1-27.8,31.7-24.6,79.9,7.1,107.7h0ZM458.4,306c22-25.1,60.3-27.7,85.4-5.6,25.1,22,27.7,60.3,5.6,85.4-22,25.1-60.3,27.7-85.4,5.6-25.1-22-27.7-60.3-5.6-85.4h0Z"/>
        <path class="st38" d="M503.5,423.3c-18.7,0-36.5-6.7-50.7-19.1-15.5-13.6-24.7-32.4-26.1-52.9s5.4-40.4,18.9-55.9c13.6-15.5,32.4-24.7,52.9-26.1,20.5-1.3,40.4,5.4,55.9,18.9,15.5,13.6,24.7,32.4,26.1,52.9,1.4,20.5-5.4,40.4-18.9,55.9-13.6,15.5-32.4,24.7-52.9,26.1-1.7.1-3.5.2-5.2.2h0ZM503.7,270.7c-1.7,0-3.4,0-5.1.2-20.1,1.3-38.6,10.4-51.9,25.6s-19.9,34.6-18.6,54.8c1.3,20.1,10.4,38.6,25.6,51.9s34.6,19.9,54.8,18.6c20.1-1.3,38.6-10.4,51.9-25.6,13.3-15.2,19.9-34.6,18.6-54.8-1.3-20.1-10.4-38.6-25.6-51.9-13.9-12.2-31.4-18.7-49.7-18.7h0ZM503.9,407.2c-14.3,0-28.8-5-40.4-15.2-25.4-22.3-28-61.1-5.7-86.5,10.8-12.3,25.7-19.7,42.1-20.8,16.3-1.1,32.1,4.3,44.4,15.1,25.4,22.3,28,61.1,5.7,86.5-12.1,13.8-29.1,20.9-46.1,20.9ZM459,306.5h0c-21.7,24.8-19.2,62.6,5.5,84.4,24.8,21.7,62.6,19.2,84.4-5.6,21.7-24.8,19.2-62.6-5.6-84.4-12-10.5-27.4-15.7-43.3-14.7-15.9,1-30.5,8.2-41,20.2h0Z"/>
      </g>
    </g>
    <g>
      <path class="st7" d="M462.7,392.9c26,22.7,65.4,20.2,88.2-5.8,22.7-26,20.2-65.4-5.8-88.2-26-22.7-65.4-20.2-88.2,5.8-22.7,26-20.2,65.4,5.8,88.2h0Z"/>
      <path class="st38" d="M503.8,409.1c-15.3,0-30-5.5-41.6-15.7h0c-12.7-11.1-20.3-26.5-21.4-43.4s4.4-33.1,15.5-45.8c11.1-12.7,26.5-20.3,43.4-21.4,16.8-1.1,33.1,4.4,45.8,15.5s20.3,26.5,21.4,43.4c1.1,16.9-4.4,33.1-15.5,45.8-11.1,12.7-26.5,20.3-43.4,21.4-1.4,0-2.8.1-4.2.1h0ZM463.2,392.3c12.4,10.9,28.3,16.3,44.7,15.2,16.5-1.1,31.5-8.5,42.4-20.9s16.3-28.3,15.2-44.7c-1.1-16.5-8.5-31.5-20.9-42.4s-28.3-16.3-44.7-15.2c-16.5,1.1-31.5,8.5-42.4,20.9s-16.3,28.3-15.2,44.7c1.1,16.5,8.5,31.5,20.9,42.4h0Z"/>
    </g>
    <path class="st10" d="M504.4,322c5.9,5.2,15,4.6,20.2-1.3,5.2-5.9,4.6-15-1.3-20.2-5.9-5.2-15-4.6-20.2,1.3s-4.6,15,1.3,20.2h0Z"/>
  </g>
  <g>
    <rect class="st27" x="272.8" y="203.6" width="20.7" height="127.4"/>
    <path class="st38" d="M293.5,331.7h-20.7c-.4,0-.8-.3-.8-.8v-127.4c0-.4.3-.8.8-.8h20.7c.4,0,.8.3.8.8v127.4c0,.4-.3.8-.8.8ZM273.6,330.2h19.2v-125.9h-19.2v125.9Z"/>
  </g>
  <rect class="st33" x="132.7" y="54.9" width="22.5" height="16.1"/>
  <rect class="st33" x="158.2" y="102.4" width="22.5" height="8.5"/>
  <rect class="st33" x="432.7" y="92.7" width="15.3" height="10"/>
</svg>